<?xml version="1.0" encoding="UTF-8" standalone="no"?>
<svg
   xmlns:xapMM="http://ns.adobe.com/xap/1.0/mm/"
   xmlns:xapGImg="http://ns.adobe.com/xap/1.0/g/img/"
   xmlns:xap="http://ns.adobe.com/xap/1.0/"
   xmlns:pdf="http://ns.adobe.com/pdf/1.3/"
   xmlns:x="adobe:ns:meta/"
   xmlns:dc="http://purl.org/dc/elements/1.1/"
   xmlns:cc="http://creativecommons.org/ns#"
   xmlns:rdf="http://www.w3.org/1999/02/22-rdf-syntax-ns#"
   xmlns:svg="http://www.w3.org/2000/svg"
   xmlns="http://www.w3.org/2000/svg"
   xmlns:xlink="http://www.w3.org/1999/xlink"
   version="1.1"
   id="svg678"
   xml:space="preserve"
   style="overflow:visible"
   viewBox="0 0 48 48"
   height="144pt"
   width="144pt"><defs
     id="defs816"><linearGradient
       y2="8.9314003"
       x2="24.0005"
       y1="39.0732"
       x1="24.0005"
       gradientUnits="userSpaceOnUse"
       id="XMLID_15_"><stop
         id="stop684"
         style="stop-color:#7D7D99"
         offset="0" /><stop
         id="stop685"
         style="stop-color:#585868"
         offset="1" /></linearGradient><linearGradient
       y2="6.5620999"
       x2="24.0005"
       y1="41.4375"
       x1="24.0005"
       gradientUnits="userSpaceOnUse"
       id="XMLID_16_"><stop
         id="stop691"
         style="stop-color:#CECEDB"
         offset="0" /><stop
         id="stop692"
         style="stop-color:#B1B1C5"
         offset="0.5843" /><stop
         id="stop693"
         style="stop-color:#9A9AB1"
         offset="1" /></linearGradient><linearGradient
       y2="27.5144"
       x2="18.7054"
       y1="3.4219"
       x1="42.797901"
       gradientUnits="userSpaceOnUse"
       id="XMLID_17_"><stop
         id="stop701"
         style="stop-color:#FFFFFF"
         offset="0" /><stop
         id="stop702"
         style="stop-color:#F5F5F7"
         offset="0.0712" /><stop
         id="stop703"
         style="stop-color:#D7D7E1"
         offset="0.3121" /><stop
         id="stop704"
         style="stop-color:#C2C2D2"
         offset="0.5501" /><stop
         id="stop705"
         style="stop-color:#B5B5C8"
         offset="0.7818" /><stop
         id="stop706"
         style="stop-color:#B1B1C5"
         offset="1" /></linearGradient><linearGradient
       y2="28.4004"
       x2="43.607399"
       y1="28.4004"
       x1="4.3926001"
       gradientUnits="userSpaceOnUse"
       id="XMLID_18_"><stop
         id="stop712"
         style="stop-color:#9A9AB1"
         offset="0" /><stop
         id="stop713"
         style="stop-color:#7D7D99"
         offset="0.2584" /><stop
         id="stop714"
         style="stop-color:#585868"
         offset="1" /></linearGradient><linearGradient
       y2="28.4004"
       x2="43.607399"
       y1="28.4004"
       x1="4.3926001"
       gradientUnits="userSpaceOnUse"
       id="XMLID_19_"><stop
         id="stop722"
         style="stop-color:#FFFFFF"
         offset="0" /><stop
         id="stop723"
         style="stop-color:#CCCCCC"
         offset="1" /></linearGradient><linearGradient
       y2="38.752899"
       x2="23.9995"
       y1="28.283199"
       x1="23.9995"
       gradientUnits="userSpaceOnUse"
       id="XMLID_20_"><stop
         id="stop729"
         style="stop-color:#FFFFFF"
         offset="0" /><stop
         id="stop730"
         style="stop-color:#CCCCCC"
         offset="1" /></linearGradient><linearGradient
       y2="27.3757"
       x2="24.0005"
       y1="38.25"
       x1="24.0005"
       gradientUnits="userSpaceOnUse"
       id="XMLID_21_"><stop
         id="stop736"
         style="stop-color:#FFFFFF"
         offset="0" /><stop
         id="stop737"
         style="stop-color:#CCCCCC"
         offset="1" /></linearGradient><linearGradient
       y2="35.180599"
       x2="39.5098"
       y1="37.3242"
       x1="39.5098"
       gradientUnits="userSpaceOnUse"
       id="XMLID_22_"><stop
         id="stop743"
         style="stop-color:#FFFFFF"
         offset="0.0056" /><stop
         id="stop744"
         style="stop-color:#B6B6B6"
         offset="1" /></linearGradient><linearGradient
       y2="35.3806"
       x2="39.5098"
       y1="37.224602"
       x1="39.5098"
       gradientUnits="userSpaceOnUse"
       id="XMLID_23_"><stop
         id="stop750"
         style="stop-color:#B6B6B6"
         offset="0.0056" /><stop
         id="stop751"
         style="stop-color:#9D9D9D"
         offset="0.3669" /><stop
         id="stop752"
         style="stop-color:#898989"
         offset="0.7432" /><stop
         id="stop753"
         style="stop-color:#828282"
         offset="1" /></linearGradient><linearGradient
       gradientTransform="matrix(-1,0,0,0.75,-283.8438,8.2881)"
       y2="36.076199"
       x2="-323.353"
       y1="37.987301"
       x1="-323.353"
       gradientUnits="userSpaceOnUse"
       id="XMLID_24_"><stop
         id="stop759"
         style="stop-color:#99FF66"
         offset="0.0056" /><stop
         id="stop760"
         style="stop-color:#68DE56"
         offset="0.2358" /><stop
         id="stop761"
         style="stop-color:#3BC147"
         offset="0.4783" /><stop
         id="stop762"
         style="stop-color:#1BAB3C"
         offset="0.6954" /><stop
         id="stop763"
         style="stop-color:#079E35"
         offset="0.8767" /><stop
         id="stop764"
         style="stop-color:#009933"
         offset="1" /></linearGradient><linearGradient
       y2="35.269402"
       x2="39.539501"
       y1="36.678699"
       x1="39.487301"
       gradientUnits="userSpaceOnUse"
       id="XMLID_25_"><stop
         id="stop770"
         style="stop-color:#33CC33"
         offset="0.0056" /><stop
         id="stop771"
         style="stop-color:#1BB433"
         offset="0.3584" /><stop
         id="stop772"
         style="stop-color:#07A033"
         offset="0.7397" /><stop
         id="stop773"
         style="stop-color:#009933"
         offset="1" /></linearGradient><linearGradient
       y2="36.4035"
       x2="39.5098"
       y1="35.482399"
       x1="39.5098"
       gradientUnits="userSpaceOnUse"
       id="XMLID_26_"><stop
         id="stop779"
         style="stop-color:#FFFFFF"
         offset="0" /><stop
         id="stop780"
         style="stop-color:#E8F7D6"
         offset="0.0907" /><stop
         id="stop781"
         style="stop-color:#C8ED9E"
         offset="0.2274" /><stop
         id="stop782"
         style="stop-color:#ADE46D"
         offset="0.3649" /><stop
         id="stop783"
         style="stop-color:#97DC46"
         offset="0.5002" /><stop
         id="stop784"
         style="stop-color:#85D627"
         offset="0.6328" /><stop
         id="stop785"
         style="stop-color:#79D212"
         offset="0.7621" /><stop
         id="stop786"
         style="stop-color:#72D004"
         offset="0.8863" /><stop
         id="stop787"
         style="stop-color:#6FCF00"
         offset="1" /></linearGradient><linearGradient
       y2="35.3633"
       x2="20.9429"
       y1="35.3633"
       x1="8.1836004"
       gradientUnits="userSpaceOnUse"
       id="XMLID_27_"><stop
         id="stop793"
         style="stop-color:#DFDFDF"
         offset="0" /><stop
         id="stop794"
         style="stop-color:#A2A2A2"
         offset="1" /></linearGradient><linearGradient
       y2="37.025398"
       x2="14.563"
       y1="33.702099"
       x1="14.563"
       gradientUnits="userSpaceOnUse"
       id="XMLID_28_"><stop
         id="stop800"
         style="stop-color:#828282"
         offset="0" /><stop
         id="stop801"
         style="stop-color:#A2A2A2"
         offset="1" /></linearGradient><linearGradient
       spreadMethod="pad"
       gradientUnits="userSpaceOnUse"
       y2="29.209892"
       x2="5.7379613"
       y1="9.4067039"
       x1="41.871559"
       id="linearGradient821"
       xlink:href="#XMLID_17_" /></defs><metadata
     id="metadata679"><xpacket>
begin='﻿' id='W5M0MpCehiHzreSzNTczkc9d'</xpacket><x:xmpmeta
       x:xmptk="XMP toolkit 3.0-29, framework 1.6"><metadata><rdf:RDF><rdf:Description
             rdf:about="uuid:d03802e5-3d70-417f-ac84-4fdaa7e8223d"><pdf:Producer>
Adobe PDF library 5.00</pdf:Producer></rdf:Description><rdf:Description
             rdf:about="uuid:d03802e5-3d70-417f-ac84-4fdaa7e8223d" /><rdf:Description
             rdf:about="uuid:d03802e5-3d70-417f-ac84-4fdaa7e8223d" /><rdf:Description
             rdf:about="uuid:d03802e5-3d70-417f-ac84-4fdaa7e8223d"><xap:CreateDate>
2004-02-17T13:34:29+02:00</xap:CreateDate><xap:ModifyDate>
2004-03-29T09:15:14Z</xap:ModifyDate><xap:CreatorTool>
Adobe Illustrator 10.0</xap:CreatorTool><xap:MetadataDate>
2004-02-23T15:55:56+01:00</xap:MetadataDate><xap:Thumbnails><rdf:Alt><rdf:li
                   rdf:parseType="Resource"><xapGImg:format>
JPEG</xapGImg:format><xapGImg:width>
256</xapGImg:width><xapGImg:height>
256</xapGImg:height><xapGImg:image>
/9j/4AAQSkZJRgABAgEASABIAAD/7QAsUGhvdG9zaG9wIDMuMAA4QklNA+0AAAAAABAASAAAAAEA
AQBIAAAAAQAB/+4ADkFkb2JlAGTAAAAAAf/bAIQABgQEBAUEBgUFBgkGBQYJCwgGBggLDAoKCwoK
DBAMDAwMDAwQDA4PEA8ODBMTFBQTExwbGxscHx8fHx8fHx8fHwEHBwcNDA0YEBAYGhURFRofHx8f
Hx8fHx8fHx8fHx8fHx8fHx8fHx8fHx8fHx8fHx8fHx8fHx8fHx8fHx8fHx8f/8AAEQgBAAEAAwER
AAIRAQMRAf/EAaIAAAAHAQEBAQEAAAAAAAAAAAQFAwIGAQAHCAkKCwEAAgIDAQEBAQEAAAAAAAAA
AQACAwQFBgcICQoLEAACAQMDAgQCBgcDBAIGAnMBAgMRBAAFIRIxQVEGE2EicYEUMpGhBxWxQiPB
UtHhMxZi8CRygvElQzRTkqKyY3PCNUQnk6OzNhdUZHTD0uIIJoMJChgZhJRFRqS0VtNVKBry4/PE
1OT0ZXWFlaW1xdXl9WZ2hpamtsbW5vY3R1dnd4eXp7fH1+f3OEhYaHiImKi4yNjo+Ck5SVlpeYmZ
qbnJ2en5KjpKWmp6ipqqusra6voRAAICAQIDBQUEBQYECAMDbQEAAhEDBCESMUEFURNhIgZxgZEy
obHwFMHR4SNCFVJicvEzJDRDghaSUyWiY7LCB3PSNeJEgxdUkwgJChgZJjZFGidkdFU38qOzwygp
0+PzhJSktMTU5PRldYWVpbXF1eX1RlZmdoaWprbG1ub2R1dnd4eXp7fH1+f3OEhYaHiImKi4yNjo
+DlJWWl5iZmpucnZ6fkqOkpaanqKmqq6ytrq+v/aAAwDAQACEQMRAD8A9U4q7FXYq7FXYq7FXYq7
FXYq7FXYq7FXYq7FXYq7FXYq7FXYq7FXYq7FXYq7FXYq7FXYq7FXYq7FXYq7FXYq7FXYq7FXYq7F
XYq7FXYq7FXYq7FXYq7FXYq7FXYq7FXYq7FXYq7FXYq7FXYq7FXYq7FXYq7FXYq7FXYq7FXYq7FX
Yq7FXYq7FXYq7FXYq7FXYq7FXYq7FXYq7FXYq7FXYq7FXYq7FXYq7FXYq7FXYq7FXYq7FXYq7FXY
q7FXYq7FXYq7FXYq7FXYq7FXYq7FXYq7FXYq7FXYq7FXYq7FXYq7FXYq7FXYq7FXYq7FXYq7FXYq
7FXYq7FXYq7FXYq7FXYq7FXYq7FXYq7FXYq7FXYq7FXYq7FXYq7FXYq7FXYq7FXYq7FXYq7FXYq7
FXYq7FXYq7FXYqxPzn+Zvlfyp+5vpmn1AjkthbgNJQ9C9SFQf6xr4A5IRJV5+/8AzkqgYhPLpZOx
N5Q0+QgP68n4aLW/9DLf9+5/0+/9eMfDW3f9DLf9+5/0+/8AXjHw1t3/AEMt/wB+5/0+/wDXjHw1
t3/Qy3/fuf8AT7/14x8Nbd/0Mt/37n/T7/14x8Nbd/0Mt/37n/T7/wBeMfDW3f8AQy3/AH7n/T7/
ANeMfDW3f9DLf9+5/wBPv/XjHw1t3/Qy3/fuf9Pv/XjHw1t3/Qy3/fuf9Pv/AF4x8Nbd/wBDLf8A
fuf9Pv8A14x8Nbd/0Mt/37n/AE+/9eMfDW3f9DLf9+5/0+/9eMfDW3f9DLf9+5/0+/8AXjHw1t3/
AEMt/wB+5/0+/wDXjHw1t3/Qy3/fuf8AT7/14x8Nbd/0Mt/37n/T7/14x8Nbd/0Mt/37n/T7/wBe
MfDW1yf85KoWAfy6VTuReVNPkYB+vHw1t6B5M/M3yv5r/c2MzQagByawuAFkoOpShKuP9U18QMgY
kJZZkVdirsVdirsVdirsVdirsVY95+8z/wCGfKt9qygNcRqI7VG3BmkPFKjwWvI+wwxFlXzRoukX
XmC+uNR1KZ5VZy08rGryyNufiP45kgMWVp5d0RFCiyiIHTkvI/eanJUqtb+XNFkmRfqMNCd/gHQb
40qcDy55f/6ttt/yJT+mRVseW/L3/Vttf+RKf0xVcPLfl3/q2Wv/ACJT+mKrh5a8u/8AVstf+RKf
0xVcPLPlz/q2Wv8AyJT+mKrh5Z8t/wDVrtf+RKf0wKuHljy3/wBWu1/5Ep/TFK8eV/LX/VrtP+RK
f0xVcPK3ln/q1Wn/ACJT+mKrx5V8sf8AVqtP+RKf0wKvHlTyv/1abT/kTH/TFV48p+Vv+rTaf8iY
/wCmKrx5S8q/9Wiz/wCREf8ATBaqi+UPKn/Vos/+REf9MbVePJ/lP/qz2f8AyIj/AKYLVUXyd5S/
6s1n/wAiI/6Y2rCNX8q6LaajPCLGEIGqg4D7Lbj8Dlo3CEC/l3RHUqbKIA/yrxP3ihw0rE9b0i58
v31vqGnTPEocNBKpIeKRdx8Q/DIkK+kPy485L5q8tw3slFv4gI72Ndh6g25AeDUrmNIUWTKcCuxV
2KuxV2KuxV2KuxV5J/zkXqAj8vaXp4NGubppqeKwRlT+MwyzGN0FhPlK29HQreoo0nKQ/wCyY0/C
mZAQnFMKovT4/iZ/DYYCqPBwK2Diq4HAq4HFVwOKrwcVXA4FXg4pXg4qvBwKvBxVUBxVerYFVFbF
VRWwKqK2Ksc83Wo5wXQH2gY3+Y3X+OTgUMdplipP5ttvW0K4oKtHxkH+xYV/CuAqnP8Azj7qRj1G
5sq/DJUkfNQR/wAmzmPkG6Q94ytLsVdirsVdirsVdirsVfP/APzkNqHreaLCxU1W0tOZA7PM7VH/
AAKLl2MbIK+xtvq9lbwdPSjRP+BUDLkK9MVTC2ThEo7nc/TgVVBxVcDirYOKrgcCrgcVXA4qvBxV
cDgVeDileDiq8HAq8HFVQHFV6tgVUVsVVFbAqF1m3FzpsydWUc0+a7/q2wxO6sLplqFC+tvrFlcQ
dfVjdP8AglIxVjv5Rah9T8329TRXK1/4ILT7nOU5BskPp/KUuxV2KuxV2KuxV2KuxV8yfmDc/pf8
071a8o0uo7anYLAFjf8AFWzIgNkFlFMsQuROTgeJxVHDAreKtg4quBxVsHFVwOBVwOKrgcVXg4qu
BwKvBxSvBxVeDgVeDiqoDiq9WwKqK2KqgOBWF31t9XvJYeyseP8AqncfhlwKFCmKvPtNJ07ziFXY
JcOi/JiQv6xlcxskPq6znFxaQzg1Esav/wAEK5jpVsVdirsVdirsVdiq2WRIo3lkPGNAWdj2AFSc
VfK3l2R9T83TX8m7yPPdP85Cf4vmWAxZ3xwqqwL8RbwxVEYFcDireKtg4quBxVsHFVwOBVwOKrgc
VXg4quBwKvBxSvBxVeDgVeDiqoDiq9WwKqK2KpH5it6TRzgfbHFvmOmTiUJPxySvP/NiG08yfWF2
LCOZf9jt+tMBCvpXyVdi68s2MgPLinCv+qSB+GYjJO8VdirsVdirsVdiqQef9Q/R/krWboHiwtZI
0bweUemp/wCCcZKI3V8//l/bVkvLgjoEjU/Mkn9QzJYsyphVWjFF+e+Kr8Ct4q4HFW8VbBxVcDir
YOKrgcCrgcVXA4qvBxVcDgVeDileDiq8HAq8HFVQHFV6tgVD6rD61jIBuyfGv0dfwwjmrGqZYhhv
5gW1JLO4A6h42PyII/WcCvYfyZ1D615UWMmrQla/SvE/ihzGkN2TPsirsVdirsVdirsVed/ntf8A
1fySLYHe9uooiP8AJSsp/GMZZjG6C858j23p6L6lN55WevsKJ/xrmQhkIXfFVTArsVbxVvFXA4q3
irYOKrgcVbBxVcDgVcDiq4HFV4OKrgcCrwcUrwcVXg4FXg4qqA4qvBBFD0PXArGbiExTvH/KSB8u
2WBDG/PFt6mi+pTeCVXr7Gqf8bYVZP8AkHqHwXVmT2PEf6pDf8bnMfIN0h7HlaXYq7FXYq7FXYq8
W/5yFv8AlcaPpwP2EluJB48yqJ/xBsuxBBQeg231fRrOKlCIlZh7sOR/E5ahHgYq3irsVdireKt4
q4HFW8VbBxVcDirYOKrgcCrgcVXA4qvBxVcDgVeDileDiq8HAq8HFVQHFUr1eKkyyjo4ofmMlFCQ
69bfWNGvIqVJiZlHuo5D8RhVLfyWv/q3mhYiaCai/wDBAr+sjKsoSH0PlKXYq7FXYq7FXYq+ePzh
uW1H8xJLRTX6ulvaJ/sh6n/EpTmTjGyCyNUCqFUUUCgHsMkhxxVrFXYq7FXYq3ireKuBxVvFWwcV
XA4q2Diq4HAq4HFVwOKrwcVXA4FXg4pXg4qvBwKvBxVRv4/Utm8U+IfR1whUoZAylWFVIoR7HJIe
feUZ30zzZCK0aKRkP+wbl/xpkcg2SH1IrBlDDowqPpzGS3irsVdirsVdir5y02yl80/mjcek4RZr
u4nEpHIIkfJkNKiv2VGZN8MWL1kfl2oArqUhPciNAP45X4qaWn8u0/6uUv8AyLjx8XyWlh/Lwf8A
Vzl/5Fx4+L5LS0/l7/2tJf8AkVHh8XyWlp/L4/8AV0l/5FR4+L5LSw/l+/8A1dZf+RUePi+S0tPk
CT/q7S/8iov6Y+L5LTX+Apf+rtL/AMiov6Y+L5LS0+RJv+rtL/yKi/pj4vktLT5Fn/6u0v8AyJi/
pg8XyWmv8D3H/V2l/wCRMX9MfF8lpb/gm6/6u8v/ACJi/pj4vktNHyXdj/pbyf8AImL+mPirTR8m
3g/6W8n/ACJi/pj4q0tPlC+H/S4k/wCRMX9MfFWmj5Svx/0uJP8AkRF/THxVpafKuoj/AKXEn/Ii
H+mPirTR8r6kP+lzJ/yIh/pj4i00fLWqD/pcyf8AIiH+mDxFpr/DurD/AKXUn/IiH+mPiLTX+H9Y
H/S6k/5EQ/0x8RaaOha0P+l1J/0jw/0x8RaWtomt0I/TT0PX/R4P6Y+ItIV/LGq8Tx1pw3Ym3hI+
6gw+KVp53rFncaV5q4XDiSQSRyvKq8FfmAWYLU0qScsu4ofSvl26+taHYz1qWhUE+6jifxGYzJMc
VdirsVdiqB12/wD0fomoX9aG1t5Zh80QsPxGECyrxr8htPMvmDUL87rbWwj368pnBB+6M5flOyA9
vOY6VpxVYcVWnFVhxVYcVWnFVhxVacVWHFVhxVacVWHFVpxVYcVWnFVhxVYcVWnFVhxVacVWHFVh
xVacVeY/mja8NWtbkbCaHifnGx3+5xl+I7IL2H8sL/655UgJNWjJB/2QD/8AG2UkUUsswK7FXYq7
FWH/AJt331TyJqABo9yY4E/2cgLf8IGyeMboKQfkPYCLy9qF6Vo1zciMN4rCgI/GRslmO6h6WcqS
tOKrDiq04qsOKrDiq04qsOKrTiqw4qsOKrTiqw4qtOKrDiq04qsOKrDiq04qsOKrTiqw4qsOKrTi
rCvzQteelWtwBUwzFSe4Ein+KjLcJ3QWS/kdf+ppdzak7pRqfIkfqIyOQbqHp+QS7FXYq7FXln59
33DSdLsAd553nI9oU4j/AJO5dhG6Cyj8sLA2XkXS4z9qWNp2PT++cuv/AArDIZDukMoIPhkFWlW8
MVWlG8Diqwxv/KcVWmKT+U4qtMUv8p+7FVphl/kP3YqtME38h+7FVpt5/wCRvuxVYbaf/fbfdiq0
2tx/vtvuxVabW5/3033YqtNpdf76b7sVWmzuv99N9xxVabK7/wB8t9xxVYbK8/3y/wBxxVabG8/3
y/3HFVpsL3/fD/ccVWnT77/fD/ccVWnTr7/fD/8AAnFVh02//wCWd/8AgTiq06bqH/LPJ/wJxVad
M1H/AJZ5P+BOKrG0zUQK/VpP+BOKsZ872bTeW72Mgq8SiShG49Ngx/AZPGd1KVfkjfelrclsTQSq
wp81qP8AiGTzDdAe45Sl2KuxV2KvDfzvvHuvNdrYxVf6tbIPTAqfUlcmgA8V45k4hsgvY7CGLT9N
trRSFitIUiB7BY0C/wAMxyUqLa9aA0Cuw8QBT8SMCtf4gtf5JPuX+uKu/wAQWv8AJJ9y/wBcVd/i
C1/kk+5f64q7/EFr/JJ9y/1xV3+ILX+ST7l/rirv8QWv8kn3L/XFXf4gtf5JPuX+uKu/xBa/ySfc
v9cVd/iC1/kk+5f64q7/ABBa/wAkn3L/AFxV3+ILX+ST7l/rirv8QWv8kn3L/XFXf4gtf5JPuX+u
Ku/xBa/ySfcv9cVd/iC1/kk+5f64q7/EFr/JJ9y/1xV3+ILX+ST7l/rirv8AEFr/ACSfcv8AXFXf
4gtf5JPuX+uKu/xBa/ySfcv9cVd/iC1/kk+5f64q7/EFr/JJ9y/1xVtdetCaFXUeJAp+BOKqOv6V
b6vpc8QAMksTJHJ4hlIofY1wg0rwn8u7xrDzXbF6oQ4DqdiCGAIP0E5kZRsgPpHMZLsVdirsVeFe
b/i/OaMNuPrunih8OEOZMfoQ9d1By1q6g9afrzGSlHp4q708Vd6eKu9PFXenirvTxV3p4q708Vd6
eKu9PFXenirvTxV3p4q708Vd6eKu9PFXenirvTxV3p4q708Vd6eKu9PFXenirvTxVN9PcraopPSv
68VeBTfB55vSm3G8uqD5M+ZMvoQ+kLOQy2kEh6vGrH6VBzGSq4q7FXYq8J85kr+cHIdRd2BH0Rw5
kw+hi9anblGRmMyQvp4q708Vd6eKu9PFXenirvTxV3p4q708Vd6eKu9PFXenirvTxV3p4q708Vd6
eKu9PFXenirvTxV3p4q708Vd6eKu9PFXenirvTxVFQNxjAxV4I5Lecrtj1N1ck/SXzJl9DF9H6b/
AMc61/4wx/8AERmMyRGKuxV2KvCfOo/5C63/ADFWP/JuHMqH0MXqqHk1MxWSr6WKpH5gvvMNnNEu
l6fHeRspMjvIqcWr0oWXFUoPmDzyOuiQ/wDI9P8AmvFUx8v6n5lv714L+xisoVjLrKrCWrBlHGiv
4E4qgdS8yeZ7fULi3tNOhuYIXKLMX4E0/wAkviqZ+Z9S1fSordrOKK7kmZl9NgY6BRWtS+Ku0TUd
YvtIub27hitJoWcLCAZAVRAwNQ/cmmKpTonmnzFqGp29rNYwQ285NZwxYgcSQePPvTFVXzN5l1zS
dSFpa20N0nprIztVCCxIpTn7Yqk0n5ieYYqNLp1uqEgE8mPX5Nir0f0sVd6WKu9LFXelirvSxV3p
Yq70sVd6WKu9LFXelirvSxV3pYq70sVd6WKqTni1MVeFygDzjeU6C6uafe+ZM/oYvo3Tf+Oda/8A
GGP/AIiMxmSIxV2KuxV4V52/8m05/wCXqy/5Nw5lQ+hi9Qsm5XCr7H9WYrJMvSxVA6ivFl+WKpZJ
3xVX0f8A3sf/AIxn9YxVJbj/AHuvv+Yh/wCGKph5w+1Yf68n/EcVX6L/AMcC9+cv/JsYqx7yt/x0
rD5f8aHFV3nT/jvP/wAYIv1virFb9eUQH+Uv68Ve1elirvSxV3pYq70sVd6WKu9LFXelirvSxV3p
Yq70sVd6WKsX1rzLcx60mi6aIhdFDLJLO3BERSASTRu5pspOU5c8Mf1GmjJnEZCP8RU3ufNUaF1v
dNmK7iIO6lvYEwgZT+exfzgg5j5fP9iZeVNfh1/TFu0Xg3R196ke/cZlQmJCxybMOWOSIlHkURet
xuGX2H6sk2PEZf8AlL7s/wDL1cfrfMqf0MX0Xpv/ABzrX/jDH/xEZiskRirsVdirwv8AMStn+Zb3
cwpEZLScH/IREUn70OZWPeDEvR9OuY0u42c0Q7Fu24zFZMjEYIqNwehxVB39jPMymMCgG9TTFUA+
jXx6Kv34qvsdLvbaZpHTkCpUBSK1JHiRiqWv5c1WS4uZfTVVmmZ0BYVoaUrSuKonXtH1HUHtfQho
IWcuzsoG60FKEnFV1jpOoWul3Nq8XOWbnx4stPiQKK1I7jFUq0TyprNldWs80a8YR8YVwT9kjbFX
eYPK+s6lqjXMEIWMxIg5uoNVLE9C3jiqTzeQPMTAUijbcGgkH8cVemelirvSxV3pYq70sVd6WKu9
LFXelirvSxV3pYq70sVd6WKsR81/l7DrN0t7BMbe7UUDqSvcnqPmcwtZohmHOi4Gt0Az0bMZDqkP
/Kp9Xf4ZNUcxn7QEjbj7s1sexADzHycD+R5nnlNfjzZt5c8tWuhactpCaqu7OdvfN3ixiEREdHcY
MMcUBCPIILUbmN7uRkNUG3LtsOuWNzxeGRbrzJPcRbpJNNIvyctT/iWZWTaDEPo3Tf8AjnWv/GGP
/iIzFZIjFXYq7FXn35teUJdUsY9XskL3lipWaNd2eCtdvdDU/InLsU62QWGeWfO0MNsllqZK+kOM
VzQkcR0VwN9vHJZMXUKCylPM2lBRx1KFR4eso/CuU8Eu5Nrv8T6Z/wBXOL/kcv8AXHgPctu/xPpn
/Vzi/wCRy/1x4D3Lbv8AE+mf9XOL/kcv9ceA9y27/E+mf9XOL/kcv9ceA9y27/E+mf8AVzi/5HL/
AFx4D3Lbv8T6Z/1c4v8Akcv9ceA9y27/ABPpn/Vzi/5HL/XHgPctu/xPpn/Vzi/5HL/XHgPctu/x
Ppn/AFc4v+Ry/wBceA9y27/E+mf9XOL/AJHL/XHgPctu/wAT6Z/1c4v+Ry/1x4D3Lbv8T6Z/1c4v
+Ry/1x4D3Lbv8T6Z/wBXOL/kcv8AXHgPctu/xPpn/Vzi/wCRy/1x4D3Lbv8AE+mf9XOL/kcv9ceA
9y27/E+mf9XOL/kcv9ceA9y27/E+mf8AVzi/5HL/AFx4D3Lbv8T6Z/1c4v8Akcv9ceA9y27/ABPp
n/Vzi/5HL/XHgPctu/xPpn/Vzi/5HL/XHgPctu/xPpn/AFc4v+Ry/wBceA9y27/E+mf9XOL/AJHL
/XHgPctrX8zaUVPLUoWHh6yn8K48Eu5bYt5m87QzWz2WmEt6o4y3NCBxPVUB338cux4upQShvJWg
z3F7GeB5uV28FrsD/rHI5Z3soe9wxiKJIx0RQo+QFMpSuxV2KuxV2KvOPN/5VWt5PJfaUPRkkJaS
Bdl5HuB/TLI5SEUwWbyBq0TlHqCOxAH62Byzx/JaWf4F1Px/4h/zXj4/ktO/wLqfj/xD/mvHx/Ja
d/gXU/H/AIh/zXj4/ktO/wAC6n4/8Q/5rx8fyWnf4F1Px/4h/wA14+P5LTv8C6n4/wDEP+a8fH8l
p3+BdT8f+If814+P5LTv8C6n4/8AEP8AmvHx/Jad/gXU/H/iH/NePj+S07/Aup+P/EP+a8fH8lp3
+BdT8f8AiH/NePj+S07/AALqfj/xD/mvHx/Jad/gXU/H/iH/ADXj4/ktO/wLqfj/AMQ/5rx8fyWn
f4F1Px/4h/zXj4/ktO/wLqfj/wAQ/wCa8fH8lp3+BdT8f+If814+P5LTv8C6n4/8Q/5rx8fyWnf4
F1Px/wCIf814+P5LTv8AAup+P/EP+a8fH8lp3+BdT8f+If8ANePj+S07/Aup+P8AxD/mvHx/Jad/
gXU/H/iH/NePj+S0m2jfl9dySqfTLsO5+Kn0D4R9JyEspK09R8t+WINJjDsAZyPnSvXfucqSnuKu
xV2KuxV2KuxV2KuxV2KuxV2KuxV2KuxV2KuxV2KuxV2KuxV2KuxV2KuxV2KuxV2KuxV2KuxV2Kux
V2KuxV2KuxV2KuxV2KuxV2KuxV2KuxV2KuxV2KuxV2KuxV2KuxV2KuxV2KuxV2KuxV2KuxV2KuxV
2KuxV2KuxV2KuxV2KuxV2KuxV2KuxV2KuxV2KuxV2KuxV2KuxV2KuxV2KuxV2KuxV2KuxV2KuxV2
KuxV2KuxV2KuxV2KuxV2KuxV2KuxV2KuxV2KuxV2KuxV2KuxV2KuxV2KuxV2KuxV2KuxV2KuxV2K
uxV2KuxV2KuxV2KuxV2KuxV2KuxV2KuxV2KuxV2KuxV2KuxV2KuxV2KuxV2KuxV2KuxV2KuxV2Ku
xV2KuxV2KuxV2KuxV2KuxV//2Q==</xapGImg:image></rdf:li></rdf:Alt></xap:Thumbnails></rdf:Description><rdf:Description
             rdf:about="uuid:d03802e5-3d70-417f-ac84-4fdaa7e8223d"><xapMM:DocumentID>
uuid:685b0065-06bf-4184-84b4-f95bb4aec596</xapMM:DocumentID></rdf:Description><rdf:Description
             rdf:about="uuid:d03802e5-3d70-417f-ac84-4fdaa7e8223d"><dc:format>
image/svg+xml</dc:format><dc:title><rdf:Alt><rdf:li
                   xml:lang="x-default">
hdd_mount.ai</rdf:li></rdf:Alt></dc:title></rdf:Description><cc:Work
             rdf:about=""><dc:format>image/svg+xml</dc:format><dc:type
               rdf:resource="http://purl.org/dc/dcmitype/StillImage" /><dc:title></dc:title></cc:Work></rdf:RDF></metadata></x:xmpmeta><xpacket>
end='w'</xpacket></metadata><path
     id="path681"
     d="M 10.389,9 C 8.898,9 7.672,10.119 7.536,11.603 l 0.03,-0.169 -0.088,0.489 0.031,-0.172 -0.089,0.488 0.03,-0.169 -0.088,0.486 0.03,-0.169 -0.089,0.488 0.03,-0.169 -0.089,0.487 0.03,-0.167 -0.088,0.484 0.03,-0.169 -0.089,0.485 0.03,-0.165 -0.088,0.482 0.029,-0.164 -0.088,0.484 0.03,-0.167 -0.088,0.483 0.029,-0.164 -0.088,0.481 0.029,-0.162 -0.087,0.48 0.03,-0.165 -0.088,0.481 0.029,-0.163 -0.087,0.481 0.028,-0.162 -0.087,0.482 0.029,-0.161 -0.087,0.479 0.028,-0.16 -0.087,0.477 0.029,-0.161 c 0,0 -0.087,0.479 -0.087,0.479 0,0 0.029,-0.16 0.029,-0.16 l -0.087,0.477 0.028,-0.158 -0.087,0.477 0.028,-0.16 c 0,0 -0.086,0.475 -0.086,0.476 0,-0.001 0.028,-0.157 0.028,-0.157 L 6.252,18.593 6.28,18.435 6.194,18.908 6.222,18.752 c 0,0 -0.086,0.475 -0.086,0.476 0,-0.001 0.028,-0.157 0.028,-0.157 L 6.078,19.547 6.106,19.39 6.02,19.864 6.047,19.708 5.96,20.179 5.987,20.026 5.902,20.498 5.929,20.342 5.844,20.814 5.871,20.661 5.786,21.132 5.813,20.979 5.727,21.451 5.754,21.298 5.669,21.768 5.696,21.617 5.611,22.087 5.638,21.935 5.553,22.405 5.58,22.253 5.495,22.723 5.522,22.572 5.437,23.04 5.463,22.89 5.378,23.357 5.404,23.208 5.319,23.675 5.345,23.527 5.261,23.994 5.287,23.845 5.203,24.313 5.229,24.164 5.145,24.63 5.171,24.481 5.087,24.946 5.113,24.8 5.029,25.265 5.055,25.118 4.971,25.582 4.997,25.436 4.912,25.902 4.938,25.756 4.854,26.219 4.88,26.072 4.795,26.539 4.821,26.393 4.737,26.856 4.762,26.711 4.679,27.174 4.704,27.029 c 0,0 -0.083,0.459 -0.083,0.46 0,-0.001 0.025,-0.143 0.025,-0.143 L 4.562,27.809 4.587,27.664 4.5,28.122 4.525,27.977 4.441,28.439 4.466,28.297 4.383,28.756 4.408,28.613 4.325,29.074 4.35,28.931 4.267,29.39 4.292,29.249 4.209,29.706 4.233,29.566 4.15,30.027 4.174,29.886 4.091,30.343 4.115,30.203 4.034,30.66 4.058,30.522 c -0.066,0.267 -0.1,0.534 -0.1,0.795 v 5.901 c 0,1.81 1.472,3.281 3.281,3.281 h 34.646 c 1.81,0 3.281,-1.472 3.281,-3.281 v -5.901 c 0,-0.263 -0.034,-0.531 -0.102,-0.798 l 0.025,0.143 -0.082,-0.457 0.024,0.14 -0.084,-0.459 0.025,0.14 -0.084,-0.46 0.025,0.143 -0.083,-0.456 0.024,0.14 -0.084,-0.461 0.025,0.146 -0.082,-0.46 C 44.737,28.76 44.654,28.3 44.654,28.3 v -0.001 l 0.024,0.14 -0.084,-0.459 0.025,0.146 -0.083,-0.462 0.025,0.143 -0.084,-0.463 0.025,0.144 -0.084,-0.461 0.025,0.146 -0.083,-0.461 0.024,0.144 -0.083,-0.463 0.024,0.142 -0.083,-0.46 0.025,0.145 -0.084,-0.462 0.025,0.145 -0.085,-0.466 0.026,0.147 -0.084,-0.464 0.025,0.148 -0.084,-0.467 0.026,0.148 -0.085,-0.467 0.026,0.147 -0.084,-0.464 0.025,0.15 -0.086,-0.473 0.027,0.155 -0.084,-0.468 0.025,0.145 -0.083,-0.462 0.025,0.145 -0.085,-0.465 0.026,0.15 -0.085,-0.468 0.026,0.15 -0.085,-0.469 0.027,0.152 -0.087,-0.473 0.028,0.155 -0.085,-0.47 0.026,0.148 c 0,0 -0.085,-0.466 -0.085,-0.467 0,10e-4 0.026,0.151 0.026,0.151 l -0.085,-0.47 0.026,0.151 -0.086,-0.471 0.027,0.155 -0.086,-0.475 0.028,0.159 -0.086,-0.475 0.027,0.155 c 0,0 -0.086,-0.473 -0.086,-0.473 0,0 0.027,0.157 0.027,0.157 l -0.086,-0.477 0.027,0.159 -0.085,-0.475 0.027,0.153 -0.087,-0.474 0.028,0.156 -0.088,-0.477 0.029,0.166 -0.086,-0.48 0.027,0.157 -0.087,-0.477 0.029,0.161 -0.069,-0.476 0.028,0.159 -0.087,-0.477 0.028,0.158 -0.087,-0.478 c 0,0.001 0.028,0.159 0.028,0.159 l -0.087,-0.478 0.029,0.166 -0.088,-0.482 0.029,0.161 -0.087,-0.479 0.028,0.161 -0.088,-0.479 0.029,0.164 -0.088,-0.483 0.029,0.164 -0.087,-0.48 0.029,0.163 -0.088,-0.481 0.029,0.164 -0.089,-0.484 0.03,0.167 -0.087,-0.482 0.028,0.162 c 0,0 -0.088,-0.481 -0.088,-0.481 0,10e-4 0.03,0.166 0.03,0.166 l -0.09,-0.487 0.031,0.171 -0.088,-0.485 0.029,0.167 c 0,0 -0.088,-0.486 -0.089,-0.487 10e-4,0.001 0.03,0.168 0.03,0.168 0,0 -0.088,-0.484 -0.088,-0.486 0,0.002 0.029,0.167 0.029,0.167 l -0.088,-0.484 0.03,0.169 -0.089,-0.489 0.03,0.171 -0.09,-0.49 0.031,0.171 C 41.453,10.119 40.227,9 38.735,9 Z"
     style="font-size:12px;opacity:0.2" /><path
     id="path682"
     d="m 10.201,8.625 c -1.491,0 -2.717,1.119 -2.853,2.603 l 0.03,-0.169 -0.088,0.488 0.031,-0.172 -0.089,0.488 0.03,-0.169 -0.089,0.486 0.03,-0.169 -0.088,0.489 0.03,-0.169 -0.089,0.487 0.03,-0.167 -0.088,0.484 0.03,-0.169 -0.089,0.485 0.03,-0.165 -0.088,0.482 0.029,-0.164 -0.087,0.483 0.03,-0.167 -0.088,0.483 0.029,-0.164 -0.088,0.481 0.029,-0.162 -0.087,0.48 0.03,-0.165 -0.088,0.481 0.029,-0.163 -0.087,0.481 0.028,-0.162 -0.087,0.479 0.029,-0.161 -0.087,0.479 0.028,-0.16 -0.087,0.477 0.029,-0.161 c 0,0 -0.087,0.479 -0.087,0.479 0,0 0.029,-0.16 0.029,-0.16 l -0.087,0.477 0.028,-0.158 -0.087,0.477 0.028,-0.16 c 0,0 -0.086,0.475 -0.086,0.476 0,-10e-4 0.028,-0.157 0.028,-0.157 l -0.086,0.477 0.028,-0.158 -0.086,0.473 0.028,-0.156 c 0,0 -0.086,0.475 -0.086,0.476 0,-0.001 0.028,-0.157 0.028,-0.157 L 5.891,19.168 5.919,19.011 5.833,19.485 5.86,19.329 5.775,19.801 5.802,19.648 5.717,20.12 5.744,19.964 5.659,20.436 5.686,20.283 5.601,20.754 5.628,20.601 5.542,21.073 5.569,20.92 5.484,21.39 5.511,21.239 5.426,21.709 5.453,21.557 5.368,22.027 5.395,21.875 5.31,22.345 5.337,22.194 5.252,22.662 5.278,22.512 5.188,22.98 5.214,22.831 5.13,23.298 5.156,23.15 5.072,23.617 5.098,23.468 5.014,23.936 5.04,23.787 4.956,24.253 4.982,24.104 4.898,24.569 4.924,24.423 4.84,24.888 4.866,24.741 4.78,25.204 4.806,25.058 4.721,25.524 4.747,25.378 4.663,25.84 4.689,25.693 4.604,26.16 4.63,26.014 4.546,26.477 4.571,26.332 4.488,26.795 4.513,26.65 c 0,0 -0.083,0.459 -0.083,0.46 0,-10e-4 0.025,-0.143 0.025,-0.143 L 4.371,27.43 4.396,27.285 4.313,27.747 4.338,27.602 4.254,28.064 4.279,27.922 4.196,28.381 4.221,28.238 4.138,28.7 l 0.025,-0.143 -0.083,0.46 0.025,-0.141 -0.083,0.457 0.024,-0.14 -0.083,0.459 0.024,-0.141 -0.083,0.457 0.024,-0.14 -0.083,0.456 0.024,-0.138 c -0.066,0.267 -0.1,0.534 -0.1,0.795 v 5.901 c 0,1.81 1.472,3.281 3.281,3.281 h 34.646 c 1.81,0 3.281,-1.472 3.281,-3.281 v -5.901 c 0,-0.263 -0.034,-0.531 -0.102,-0.798 l 0.025,0.143 -0.082,-0.457 0.024,0.14 -0.084,-0.459 0.025,0.14 -0.084,-0.46 0.025,0.143 -0.083,-0.456 0.024,0.14 -0.084,-0.461 0.025,0.146 -0.082,-0.46 c 0.024,0.142 -0.059,-0.318 -0.059,-0.318 v -0.001 l 0.024,0.14 -0.084,-0.459 0.025,0.146 -0.083,-0.462 0.025,0.143 -0.084,-0.463 0.025,0.144 -0.084,-0.461 0.025,0.146 -0.083,-0.461 0.024,0.144 -0.083,-0.463 0.024,0.142 -0.083,-0.46 0.025,0.145 -0.084,-0.462 0.025,0.145 -0.085,-0.466 0.026,0.147 -0.084,-0.464 0.025,0.148 -0.084,-0.467 0.026,0.148 -0.085,-0.467 0.026,0.147 -0.084,-0.464 0.025,0.15 -0.086,-0.473 0.027,0.155 -0.084,-0.468 0.025,0.145 -0.083,-0.462 0.025,0.145 -0.085,-0.465 0.026,0.15 -0.085,-0.468 0.026,0.15 -0.085,-0.469 0.027,0.152 -0.073,-0.474 0.028,0.155 -0.085,-0.47 0.026,0.148 c 0,0 -0.085,-0.466 -0.085,-0.467 0,0.001 0.026,0.151 0.026,0.151 l -0.085,-0.47 0.026,0.151 -0.086,-0.471 0.027,0.155 -0.086,-0.475 0.028,0.159 -0.084,-0.473 0.027,0.155 c 0,0 -0.086,-0.473 -0.086,-0.473 0,0 0.027,0.157 0.027,0.157 l -0.086,-0.477 0.027,0.159 -0.085,-0.475 0.027,0.153 -0.087,-0.474 0.028,0.156 -0.088,-0.477 0.029,0.166 -0.086,-0.48 0.027,0.157 -0.087,-0.477 0.029,0.161 -0.087,-0.477 0.028,0.159 -0.087,-0.477 0.028,0.158 -0.087,-0.478 c 0,10e-4 0.028,0.159 0.028,0.159 l -0.087,-0.478 0.029,0.166 -0.088,-0.482 0.029,0.161 -0.087,-0.479 0.028,0.161 -0.088,-0.479 0.029,0.164 -0.088,-0.483 0.029,0.164 -0.087,-0.48 0.029,0.163 -0.088,-0.481 0.029,0.164 -0.089,-0.484 0.03,0.167 -0.087,-0.482 0.028,0.162 c 0,0 -0.088,-0.481 -0.088,-0.481 0,10e-4 0.03,0.166 0.03,0.166 l -0.09,-0.487 0.031,0.171 -0.088,-0.485 0.029,0.167 c 0,0 -0.088,-0.486 -0.089,-0.487 10e-4,10e-4 0.03,0.168 0.03,0.168 0,0 -0.088,-0.484 -0.088,-0.486 0,0.002 0.029,0.167 0.029,0.167 l -0.088,-0.484 0.03,0.169 -0.089,-0.489 0.03,0.171 -0.09,-0.49 0.031,0.171 C 41.254,9.746 40.028,8.627 38.536,8.627 H 10.201 Z"
     style="font-size:12px;opacity:0.2" /><path
     id="path689"
     d="m 9.826,8.25 c -1.491,0 -2.717,1.119 -2.853,2.603 L 7.003,10.684 6.915,11.173 6.946,11 l -0.089,0.488 0.03,-0.169 -0.088,0.486 0.03,-0.169 -0.089,0.489 0.03,-0.169 -0.089,0.487 0.03,-0.167 -0.088,0.484 0.03,-0.169 -0.089,0.485 0.03,-0.165 -0.088,0.482 0.029,-0.164 -0.087,0.483 0.03,-0.167 -0.088,0.484 0.029,-0.164 -0.088,0.481 0.029,-0.162 -0.087,0.48 0.03,-0.165 -0.088,0.481 0.029,-0.163 -0.087,0.481 0.028,-0.162 -0.087,0.479 0.029,-0.161 -0.087,0.482 0.028,-0.16 -0.087,0.477 0.029,-0.161 c 0,0 -0.087,0.479 -0.087,0.479 0,0 0.029,-0.16 0.029,-0.16 l -0.087,0.477 0.028,-0.158 -0.087,0.477 0.028,-0.16 c 0,0 -0.086,0.475 -0.086,0.476 0,-0.001 0.028,-0.157 0.028,-0.157 L 5.69,17.843 5.718,17.685 5.632,18.158 5.66,18.002 c 0,0 -0.086,0.475 -0.086,0.476 0,-0.001 0.028,-0.157 0.028,-0.157 L 5.516,18.797 5.544,18.64 5.458,19.114 5.485,18.958 5.4,19.43 5.427,19.277 5.342,19.749 5.369,19.593 5.284,20.065 5.311,19.912 5.226,20.383 5.253,20.23 5.167,20.702 5.194,20.549 5.109,21.019 5.136,20.868 5.051,21.338 5.078,21.186 4.993,21.656 5.02,21.504 4.935,21.974 4.962,21.823 4.877,22.291 4.903,22.141 4.818,22.608 4.844,22.459 4.759,22.926 4.785,22.778 4.701,23.245 4.727,23.096 4.643,23.564 4.669,23.415 4.58,23.878 4.606,23.729 4.522,24.194 4.548,24.048 4.464,24.513 4.49,24.366 4.406,24.83 4.432,24.684 4.347,25.149 4.373,25.003 4.289,25.466 4.315,25.319 4.23,25.786 4.256,25.64 4.172,26.103 4.197,25.958 4.114,26.421 4.139,26.276 c 0,0 -0.083,0.459 -0.083,0.46 0,-0.001 0.025,-0.143 0.025,-0.143 L 3.997,27.056 4.022,26.911 3.939,27.373 3.964,27.228 3.88,27.69 3.905,27.548 3.822,28.007 3.847,27.864 3.764,28.325 3.789,28.182 3.706,28.641 3.731,28.5 3.648,28.957 3.672,28.817 3.589,29.276 3.613,29.135 3.53,29.594 3.554,29.454 3.471,29.91 3.495,29.772 c -0.066,0.267 -0.1,0.534 -0.1,0.795 v 5.901 c 0,1.81 1.472,3.281 3.281,3.281 h 34.646 c 1.81,0 3.281,-1.472 3.281,-3.281 v -5.901 c 0,-0.263 -0.034,-0.531 -0.102,-0.798 l 0.025,0.143 -0.082,-0.457 0.024,0.14 -0.084,-0.459 0.025,0.14 -0.084,-0.46 0.025,0.143 -0.083,-0.456 0.024,0.14 -0.084,-0.461 0.025,0.146 -0.082,-0.46 C 44.174,28.01 44.091,27.55 44.091,27.55 v -0.001 l 0.024,0.14 -0.084,-0.459 0.025,0.146 -0.083,-0.462 0.025,0.143 -0.084,-0.463 0.025,0.144 -0.084,-0.461 0.025,0.146 -0.083,-0.461 0.024,0.144 -0.083,-0.463 0.024,0.142 -0.083,-0.46 0.025,0.145 -0.084,-0.462 0.025,0.145 -0.085,-0.465 0.026,0.147 -0.084,-0.464 0.025,0.148 -0.084,-0.467 0.026,0.148 -0.085,-0.467 0.026,0.147 -0.084,-0.464 0.025,0.15 -0.086,-0.473 0.027,0.155 -0.084,-0.468 0.025,0.145 -0.083,-0.462 0.025,0.145 -0.085,-0.465 0.026,0.15 -0.085,-0.468 0.026,0.15 -0.085,-0.469 0.027,0.152 -0.087,-0.473 0.028,0.155 -0.085,-0.47 0.026,0.148 c 0,0 -0.085,-0.466 -0.085,-0.467 0,0.001 0.026,0.151 0.026,0.151 l -0.085,-0.47 0.026,0.151 -0.086,-0.471 0.027,0.155 -0.086,-0.475 0.028,0.159 -0.086,-0.475 0.027,0.155 c 0,0 -0.086,-0.473 -0.086,-0.473 0,0 0.027,0.157 0.027,0.157 l -0.086,-0.477 0.027,0.159 -0.069,-0.475 0.027,0.153 -0.087,-0.474 0.028,0.156 -0.088,-0.477 0.029,0.166 -0.086,-0.48 0.027,0.157 -0.087,-0.477 0.029,0.161 -0.087,-0.477 0.028,0.159 -0.087,-0.477 0.028,0.158 -0.087,-0.478 c 0,0.001 0.028,0.159 0.028,0.159 l -0.087,-0.478 0.029,0.166 -0.088,-0.482 0.029,0.161 -0.087,-0.479 0.028,0.161 -0.088,-0.479 0.029,0.164 -0.088,-0.483 0.029,0.164 -0.087,-0.48 0.029,0.163 -0.088,-0.481 0.029,0.164 -0.089,-0.484 0.03,0.167 -0.087,-0.482 0.028,0.162 c 0,0 -0.088,-0.481 -0.088,-0.481 0,10e-4 0.03,0.166 0.03,0.166 l -0.09,-0.487 0.031,0.171 -0.088,-0.485 0.029,0.167 c 0,0 -0.088,-0.486 -0.089,-0.487 0.001,0.001 0.03,0.168 0.03,0.168 0,0 -0.088,-0.484 -0.088,-0.486 0,0.002 0.029,0.167 0.029,0.167 l -0.088,-0.484 0.03,0.169 -0.079,-0.493 0.03,0.171 -0.09,-0.49 0.031,0.171 C 40.89,9.368 39.664,8.249 38.172,8.249 H 9.826 Z"
     style="font-size:12px;fill:url(#XMLID_15_)" /><path
     id="path699"
     d="M 43.537,30.014 C 43.525,29.905 43.504,29.799 43.478,29.697 43.467,29.588 43.446,29.482 43.419,29.379 43.408,29.271 43.387,29.165 43.36,29.061 43.349,28.953 43.328,28.848 43.302,28.745 43.291,28.637 43.27,28.531 43.243,28.428 43.232,28.319 43.211,28.213 43.184,28.11 43.173,28.002 43.152,27.896 43.126,27.792 43.114,27.684 43.093,27.578 43.067,27.475 43.055,27.367 43.035,27.261 43.008,27.158 42.997,27.049 42.976,26.943 42.949,26.84 42.938,26.731 42.917,26.626 42.89,26.523 42.879,26.414 42.858,26.308 42.831,26.205 42.82,26.097 42.8,25.991 42.773,25.888 42.761,25.779 42.741,25.673 42.714,25.57 42.703,25.462 42.682,25.356 42.655,25.253 42.644,25.144 42.623,25.038 42.596,24.935 42.585,24.826 42.564,24.721 42.537,24.618 42.527,24.509 42.506,24.404 42.479,24.3 42.468,24.192 42.447,24.086 42.42,23.983 42.409,23.874 42.388,23.769 42.361,23.665 42.351,23.556 42.33,23.451 42.302,23.347 42.292,23.238 42.271,23.133 42.244,23.029 42.233,22.92 42.212,22.814 42.185,22.711 42.174,22.603 42.153,22.497 42.126,22.394 42.115,22.285 42.094,22.179 42.067,22.076 42.056,21.967 42.036,21.862 42.009,21.759 41.998,21.65 41.977,21.544 41.95,21.441 41.939,21.333 41.918,21.227 41.891,21.123 41.88,21.015 41.86,20.909 41.832,20.805 41.821,20.696 41.801,20.591 41.773,20.487 41.762,20.378 41.742,20.273 41.714,20.17 41.704,20.061 41.684,19.956 41.656,19.853 41.645,19.744 41.625,19.639 41.597,19.535 41.586,19.426 41.566,19.321 41.538,19.217 41.527,19.108 41.507,19.003 41.479,18.899 41.469,18.79 41.448,18.684 41.421,18.581 41.41,18.472 41.39,18.366 41.362,18.262 41.351,18.154 41.331,18.048 41.303,17.945 41.293,17.836 41.272,17.73 41.244,17.627 41.233,17.518 41.213,17.412 41.185,17.309 41.175,17.2 41.154,17.094 41.127,16.991 41.116,16.882 41.096,16.776 41.068,16.673 41.057,16.564 41.037,16.458 41.009,16.355 40.998,16.246 40.978,16.141 40.95,16.038 40.94,15.929 40.919,15.824 40.891,15.72 c -0.01,-0.109 -0.03,-0.214 -0.058,-0.318 -0.011,-0.109 -0.031,-0.214 -0.059,-0.317 -0.01,-0.109 -0.031,-0.215 -0.059,-0.318 -0.01,-0.109 -0.031,-0.215 -0.059,-0.318 -0.01,-0.109 -0.03,-0.215 -0.058,-0.319 -0.011,-0.109 -0.031,-0.214 -0.059,-0.317 -0.011,-0.109 -0.031,-0.215 -0.059,-0.318 -0.01,-0.109 -0.031,-0.215 -0.059,-0.318 -0.01,-0.109 -0.03,-0.215 -0.059,-0.318 -0.01,-0.109 -0.03,-0.215 -0.058,-0.318 -0.01,-0.109 -0.031,-0.215 -0.059,-0.318 -0.01,-0.109 -0.031,-0.215 -0.059,-0.319 -0.01,-0.108 -0.031,-0.214 -0.059,-0.317 -0.01,-0.109 -0.03,-0.215 -0.059,-0.318 -0.01,-0.109 -0.03,-0.215 -0.059,-0.318 C 39.923,9.999 39.123,9.254 38.149,9.254 H 9.826 c -0.974,0 -1.773,0.745 -1.86,1.697 C 7.938,11.054 7.918,11.159 7.908,11.269 7.88,11.372 7.86,11.478 7.849,11.587 7.821,11.69 7.801,11.795 7.791,11.904 7.763,12 7.742,12.106 7.732,12.215 7.704,12.318 7.684,12.423 7.673,12.533 7.646,12.636 7.625,12.741 7.615,12.851 7.587,12.954 7.567,13.059 7.556,13.169 7.529,13.272 7.508,13.377 7.498,13.487 7.471,13.59 7.45,13.695 7.439,13.805 7.412,13.908 7.391,14.013 7.38,14.122 7.353,14.226 7.332,14.331 7.322,14.441 7.295,14.544 7.274,14.649 7.263,14.759 7.236,14.862 7.215,14.967 7.205,15.077 7.178,15.18 7.157,15.285 7.146,15.394 7.119,15.498 7.098,15.603 7.088,15.712 7.061,15.816 7.04,15.921 7.029,16.03 7.002,16.133 6.981,16.238 6.971,16.347 6.944,16.451 6.923,16.556 6.912,16.665 6.885,16.768 6.864,16.874 6.853,16.983 6.826,17.086 6.805,17.192 6.795,17.301 6.771,17.404 6.75,17.51 6.74,17.619 6.713,17.722 6.692,17.828 6.682,17.937 6.655,18.04 6.634,18.145 6.623,18.254 6.596,18.358 6.575,18.463 6.564,18.573 6.537,18.676 6.516,18.781 6.506,18.891 6.479,18.995 6.458,19.099 6.447,19.209 6.421,19.312 6.4,19.417 6.39,19.526 6.363,19.63 6.342,19.735 6.331,19.844 6.304,19.947 6.283,20.052 6.272,20.161 6.246,20.264 6.225,20.369 6.214,20.478 6.187,20.582 6.166,20.687 6.155,20.796 6.128,20.9 6.108,21.005 6.097,21.114 6.07,21.218 6.049,21.323 6.038,21.432 6.012,21.536 5.99,21.641 5.98,21.75 5.953,21.853 5.932,21.958 5.921,22.067 5.895,22.171 5.874,22.276 5.863,22.385 5.836,22.488 5.815,22.593 5.804,22.702 5.778,22.805 5.756,22.911 5.745,23.02 5.721,23.125 5.7,23.231 5.689,23.34 5.662,23.444 5.641,23.549 5.63,23.658 5.604,23.762 5.583,23.867 5.572,23.976 5.546,24.08 5.524,24.185 5.513,24.293 5.487,24.397 5.465,24.502 5.454,24.611 5.428,24.714 5.407,24.819 5.396,24.928 5.37,25.032 5.348,25.137 5.337,25.246 5.311,25.35 5.29,25.455 5.279,25.563 5.253,25.667 5.231,25.772 5.22,25.881 5.194,25.985 5.173,26.09 5.162,26.198 5.136,26.302 5.115,26.407 5.103,26.516 5.077,26.62 5.056,26.724 5.044,26.833 5.018,26.937 4.997,27.042 4.985,27.151 4.959,27.255 4.938,27.36 4.927,27.468 4.901,27.572 4.88,27.677 4.868,27.785 4.842,27.889 4.821,27.995 4.81,28.103 4.784,28.207 4.763,28.312 4.752,28.421 4.726,28.525 4.705,28.63 4.693,28.738 4.667,28.842 4.646,28.946 4.635,29.054 4.609,29.158 4.588,29.264 4.576,29.372 4.55,29.476 4.529,29.581 4.518,29.69 c -0.026,0.103 -0.047,0.208 -0.059,0.317 -0.044,0.178 -0.07,0.362 -0.07,0.554 v 5.901 c 0,1.262 1.023,2.284 2.284,2.284 h 34.646 c 1.262,0 2.284,-1.022 2.284,-2.284 v -5.901 c 0.004,-0.185 -0.022,-0.37 -0.066,-0.547 z"
     style="font-size:12px;fill:url(#XMLID_16_)" /><path
     id="path710"
     d="M 11.981,9.247 5.421,29.689 C 17.902,28.192 30.049,28.185 42.347,28.863 L 36.033,9.247 Z"
     style="font-size:12px;fill:url(#linearGradient821)" /><path
     id="path720"
     d="m 4.755,28.625 c -0.026,0.104 -0.047,0.209 -0.059,0.317 -0.026,0.104 -0.047,0.208 -0.058,0.316 -0.026,0.104 -0.047,0.21 -0.059,0.319 -0.026,0.104 -0.047,0.208 -0.058,0.317 -0.026,0.103 -0.047,0.208 -0.059,0.317 -0.044,0.178 -0.07,0.363 -0.07,0.555 v 2.421 c 0.424,0.4 0.995,0.646 1.625,0.646 h 35.966 c 0.629,0 1.199,-0.246 1.624,-0.646 v -2.421 c 0,-0.191 -0.026,-0.377 -0.07,-0.555 C 43.525,30.102 43.504,29.996 43.478,29.894 43.467,29.785 43.446,29.679 43.419,29.577 43.408,29.468 43.387,29.362 43.36,29.258 43.349,29.15 43.328,29.045 43.302,28.942 43.291,28.834 43.27,28.728 43.243,28.625 43.232,28.516 43.211,28.41 43.184,28.307 43.173,28.199 43.152,28.093 43.126,27.99 43.114,27.881 43.093,27.775 43.067,27.672 43.055,27.564 43.035,27.458 43.008,27.355 42.997,27.246 42.976,27.14 42.949,27.037 42.938,26.929 42.917,26.823 42.89,26.72 42.879,26.612 42.858,26.505 42.831,26.403 42.82,26.294 42.8,26.188 42.773,26.085 42.761,25.976 42.741,25.87 42.714,25.767 42.703,25.659 42.682,25.553 42.655,25.45 42.644,25.342 42.623,25.235 42.596,25.132 42.585,25.023 42.564,24.918 42.537,24.815 42.527,24.706 42.506,24.601 42.479,24.497 42.468,24.388 42.447,24.283 42.42,24.179 42.409,24.07 42.388,23.965 42.361,23.862 42.351,23.753 42.33,23.647 42.302,23.544 42.292,23.435 42.271,23.33 42.244,23.227 42.235,23.144 42.221,23.064 42.203,22.985 42.128,22.978 42.052,22.972 41.974,22.972 H 6.017 c -0.077,0 -0.153,0.006 -0.229,0.013 C 5.77,23.064 5.755,23.144 5.746,23.227 5.72,23.33 5.699,23.436 5.688,23.544 5.661,23.648 5.64,23.753 5.629,23.862 5.603,23.965 5.582,24.07 5.571,24.179 5.545,24.283 5.523,24.388 5.512,24.497 5.486,24.601 5.464,24.706 5.453,24.815 5.427,24.918 5.406,25.023 5.395,25.132 5.369,25.236 5.347,25.342 5.336,25.45 5.31,25.554 5.289,25.659 5.278,25.767 5.252,25.871 5.23,25.976 5.219,26.085 5.193,26.189 5.172,26.294 5.161,26.403 5.135,26.506 5.114,26.612 5.102,26.72 5.076,26.824 5.055,26.929 5.043,27.037 5.017,27.141 4.996,27.246 4.984,27.355 4.958,27.459 4.937,27.564 4.926,27.672 4.9,27.776 4.879,27.881 4.867,27.99 4.841,28.094 4.82,28.199 4.809,28.307 4.787,28.41 4.766,28.516 4.755,28.625 Z"
     style="font-size:12px;fill:url(#XMLID_18_)" /><path
     id="path727"
     d="M 43.479,29.696 C 43.468,29.587 43.447,29.481 43.42,29.378 43.409,29.27 43.388,29.164 43.361,29.06 43.35,28.952 43.329,28.847 43.303,28.744 43.292,28.636 43.271,28.53 43.244,28.427 43.233,28.318 43.212,28.212 43.185,28.109 43.174,28.001 43.153,27.895 43.127,27.791 43.115,27.683 43.094,27.577 43.068,27.474 43.056,27.366 43.036,27.26 43.009,27.157 42.998,27.048 42.977,26.942 42.95,26.839 42.939,26.73 42.918,26.625 42.891,26.522 42.88,26.413 42.859,26.307 42.832,26.204 42.821,26.096 42.801,25.99 42.774,25.887 42.762,25.778 42.742,25.672 42.715,25.569 42.704,25.461 42.683,25.355 42.656,25.252 42.645,25.143 42.624,25.037 42.597,24.934 42.586,24.825 42.565,24.72 42.538,24.617 42.528,24.508 42.507,24.403 42.48,24.299 42.469,24.191 42.448,24.085 42.421,23.982 42.41,23.873 42.389,23.768 42.362,23.664 42.354,23.576 42.337,23.49 42.317,23.406 42.014,23.258 41.675,23.173 41.316,23.173 H 6.677 c -0.359,0 -0.699,0.085 -1.001,0.233 -0.02,0.084 -0.037,0.17 -0.045,0.258 C 5.605,23.768 5.584,23.873 5.573,23.982 5.547,24.086 5.525,24.191 5.514,24.299 5.488,24.403 5.466,24.508 5.455,24.617 5.429,24.72 5.408,24.825 5.397,24.934 5.371,25.038 5.349,25.143 5.338,25.252 5.312,25.356 5.291,25.461 5.28,25.569 5.254,25.673 5.232,25.778 5.221,25.887 5.195,25.991 5.174,26.096 5.163,26.204 5.137,26.308 5.116,26.413 5.104,26.522 5.078,26.626 5.057,26.73 5.045,26.839 5.019,26.943 4.998,27.048 4.986,27.157 4.96,27.261 4.939,27.366 4.928,27.474 4.902,27.578 4.881,27.683 4.869,27.791 4.843,27.895 4.822,28.001 4.811,28.109 4.785,28.213 4.764,28.318 4.753,28.427 4.727,28.531 4.706,28.636 4.694,28.744 4.668,28.848 4.647,28.952 4.636,29.06 4.61,29.164 4.589,29.27 4.577,29.378 4.551,29.482 4.53,29.587 4.519,29.696 4.493,29.799 4.472,29.904 4.46,30.013 4.416,30.19 4.39,30.374 4.39,30.566 v 0.785 c 0,1.262 1.023,2.284 2.284,2.284 H 41.32 c 1.262,0 2.284,-1.022 2.284,-2.284 v -0.784 c 0,-0.191 -0.026,-0.376 -0.07,-0.554 -0.009,-0.109 -0.03,-0.214 -0.055,-0.317 z"
     style="font-size:12px;fill:url(#XMLID_19_)" /><path
     id="path734"
     d="m 4.393,36.469 c 0,1.262 1.023,2.284 2.284,2.284 h 34.646 c 1.262,0 2.284,-1.022 2.284,-2.284 v -5.901 c 0,-1.262 -1.022,-2.284 -2.284,-2.284 H 6.677 c -1.261,0 -2.284,1.022 -2.284,2.284 z"
     style="font-size:12px;fill:url(#XMLID_20_)" /><path
     id="path741"
     d="m 6.677,29.479 c -0.6,0 -1.088,0.488 -1.088,1.088 v 5.901 c 0,0.6 0.488,1.088 1.088,1.088 h 34.646 c 0.6,0 1.088,-0.488 1.088,-1.088 v -5.901 c 0,-0.6 -0.488,-1.088 -1.088,-1.088 z"
     style="font-size:12px;fill:url(#XMLID_21_)" /><path
     id="path748"
     d="m 39.107,34.945 c -0.761,0 -1.355,0.49 -1.355,1.116 0,0.626 0.595,1.116 1.355,1.116 h 0.805 c 0.76,0 1.355,-0.49 1.355,-1.116 0,-0.626 -0.596,-1.116 -1.355,-1.116 z"
     style="font-size:12px;fill:url(#XMLID_22_)" /><path
     id="path757"
     d="m 39.107,35.244 c -0.583,0 -1.057,0.367 -1.057,0.817 0,0.45 0.474,0.816 1.057,0.816 h 0.805 c 0.583,0 1.056,-0.366 1.056,-0.816 0,-0.45 -0.473,-0.817 -1.056,-0.817 z"
     style="font-size:12px;fill:url(#XMLID_23_)" /><path
     id="path768"
     d="m 40.868,36.062 c 0,0.396 -0.428,0.717 -0.956,0.717 h -0.805 c -0.528,0 -0.957,-0.32 -0.957,-0.717 v 0 c 0,-0.396 0.429,-0.717 0.957,-0.717 h 0.805 c 0.528,0 0.956,0.32 0.956,0.717 z"
     style="font-size:12px;fill:url(#XMLID_24_)" /><path
     id="path777"
     d="m 39.107,35.544 c -0.411,0 -0.758,0.248 -0.758,0.542 0,0.295 0.347,0.543 0.758,0.543 h 0.805 c 0.41,0 0.757,-0.248 0.757,-0.543 0,-0.294 -0.347,-0.542 -0.757,-0.542 z"
     style="font-size:12px;fill:url(#XMLID_25_)" /><path
     id="path791"
     d="m 39.075,35.426 c -0.338,0 -0.601,0.208 -0.601,0.387 0,0.179 0.263,0.386 0.601,0.386 h 0.869 c 0.344,0 0.6,-0.204 0.6,-0.386 0,-0.183 -0.256,-0.387 -0.6,-0.387 z"
     style="font-size:12px;fill:url(#XMLID_26_)" /><rect
     id="rect798"
     height="3.323"
     width="12.759"
     style="font-size:12px;fill:url(#XMLID_27_)"
     y="33.702"
     x="8.184" /><polygon
     id="polygon805"
     points="20.544,37.025 20.943,37.025 20.943,33.702 8.184,33.702 8.184,34.102 20.544,34.102 "
     style="font-size:12px;fill:url(#XMLID_28_)" /><rect
     id="rect806"
     height="3.323"
     width="0.79699999"
     style="font-size:12px;fill:#949494"
     y="33.702"
     x="17.886" /><rect
     id="rect807"
     height="3.323"
     width="0.79799998"
     style="font-size:12px;fill:#949494"
     y="33.702"
     x="13.721" /><rect
     id="rect808"
     height="3.323"
     width="0.79699999"
     style="font-size:12px;fill:#949494"
     y="33.702"
     x="15.804" /><rect
     id="rect809"
     height="3.323"
     width="0.79699999"
     style="font-size:12px;fill:#949494"
     y="33.702"
     x="11.639" /><rect
     id="rect810"
     height="3.323"
     width="0.79799998"
     style="font-size:12px;fill:#f0f0f0"
     y="33.702"
     x="17.687" /><rect
     id="rect811"
     height="3.323"
     width="0.79699999"
     style="font-size:12px;fill:#f0f0f0"
     y="33.702"
     x="13.522" /><rect
     id="rect812"
     height="3.323"
     width="0.79699999"
     style="font-size:12px;fill:#f0f0f0"
     y="33.702"
     x="15.604" /><rect
     id="rect813"
     height="3.323"
     width="0.79799998"
     style="font-size:12px;fill:#f0f0f0"
     y="33.702"
     x="11.439" /><polyline
     points="0,48 0,0 48,0 48,48 "
     style="font-size:12px;fill:none"
     id="_x3C_Slice_x3E_" /></svg>