<?xml version="1.0" encoding="UTF-8" standalone="no"?>
<!DOCTYPE svg PUBLIC "-//W3C//DTD SVG 20010904//EN"
"http://www.w3.org/TR/2001/REC-SVG-20010904/DTD/svg10.dtd">
<!-- Created with Sodipodi ("http://www.sodipodi.com/") -->
<svg
   xmlns="http://www.w3.org/2000/svg"
   xmlns:xap="http://ns.adobe.com/xap/1.0/"
   xmlns:xapGImg="http://ns.adobe.com/xap/1.0/g/img/"
   xmlns:sodipodi="http://sodipodi.sourceforge.net/DTD/sodipodi-0.dtd"
   xmlns:rdf="http://www.w3.org/1999/02/22-rdf-syntax-ns#"
   xmlns:xapMM="http://ns.adobe.com/xap/1.0/mm/"
   xmlns:pdf="http://ns.adobe.com/pdf/1.3/"
   xmlns:dc="http://purl.org/dc/elements/1.1/"
   xmlns:a="http://ns.adobe.com/AdobeSVGViewerExtensions/3.0/"
   xmlns:x="adobe:ns:meta/"
   xmlns:xlink="http://www.w3.org/1999/xlink"
   width="48pt"
   height="48pt"
   viewBox="0 0 48 48"
   style="overflow:visible;enable-background:new 0 0 48 48"
   xml:space="preserve"
   id="svg678"
   sodipodi:version="0.34"
   sodipodi:docname="/home/tim/tmp/mount-plugin.berlios/icons/gnome-dev-harddisk.svg"
   sodipodi:docbase="/home/tim/tmp/mount-plugin.berlios/icons"><defs
   id="defs816"><linearGradient
   id="XMLID_15_"
   gradientUnits="userSpaceOnUse"
   x1="24.0005"
   y1="39.0732"
   x2="24.0005"
   y2="8.9314"><stop
   offset="0"
   style="stop-color:#7D7D99"
   id="stop684" /><stop
   offset="1"
   style="stop-color:#585868"
   id="stop685" /></linearGradient><linearGradient
   id="XMLID_16_"
   gradientUnits="userSpaceOnUse"
   x1="24.0005"
   y1="41.4375"
   x2="24.0005"
   y2="6.5621"><stop
   offset="0"
   style="stop-color:#CECEDB"
   id="stop691" /><stop
   offset="0.5843"
   style="stop-color:#B1B1C5"
   id="stop692" /><stop
   offset="1"
   style="stop-color:#9A9AB1"
   id="stop693" /></linearGradient><linearGradient
   id="XMLID_17_"
   gradientUnits="userSpaceOnUse"
   x1="42.7979"
   y1="3.4219"
   x2="18.7054"
   y2="27.5144"><stop
   offset="0"
   style="stop-color:#FFFFFF"
   id="stop701" /><stop
   offset="0.0712"
   style="stop-color:#F5F5F7"
   id="stop702" /><stop
   offset="0.3121"
   style="stop-color:#D7D7E1"
   id="stop703" /><stop
   offset="0.5501"
   style="stop-color:#C2C2D2"
   id="stop704" /><stop
   offset="0.7818"
   style="stop-color:#B5B5C8"
   id="stop705" /><stop
   offset="1"
   style="stop-color:#B1B1C5"
   id="stop706" /></linearGradient><linearGradient
   id="XMLID_18_"
   gradientUnits="userSpaceOnUse"
   x1="4.3926"
   y1="28.4004"
   x2="43.6074"
   y2="28.4004"><stop
   offset="0"
   style="stop-color:#9A9AB1"
   id="stop712" /><stop
   offset="0.2584"
   style="stop-color:#7D7D99"
   id="stop713" /><stop
   offset="1"
   style="stop-color:#585868"
   id="stop714" /></linearGradient><linearGradient
   id="XMLID_19_"
   gradientUnits="userSpaceOnUse"
   x1="4.3926"
   y1="28.4004"
   x2="43.6074"
   y2="28.4004"><stop
   offset="0"
   style="stop-color:#FFFFFF"
   id="stop722" /><stop
   offset="1"
   style="stop-color:#CCCCCC"
   id="stop723" /></linearGradient><linearGradient
   id="XMLID_20_"
   gradientUnits="userSpaceOnUse"
   x1="23.9995"
   y1="28.2832"
   x2="23.9995"
   y2="38.7529"><stop
   offset="0"
   style="stop-color:#FFFFFF"
   id="stop729" /><stop
   offset="1"
   style="stop-color:#CCCCCC"
   id="stop730" /></linearGradient><linearGradient
   id="XMLID_21_"
   gradientUnits="userSpaceOnUse"
   x1="24.0005"
   y1="38.25"
   x2="24.0005"
   y2="27.3757"><stop
   offset="0"
   style="stop-color:#FFFFFF"
   id="stop736" /><stop
   offset="1"
   style="stop-color:#CCCCCC"
   id="stop737" /></linearGradient><linearGradient
   id="XMLID_22_"
   gradientUnits="userSpaceOnUse"
   x1="39.5098"
   y1="37.3242"
   x2="39.5098"
   y2="35.1806"><stop
   offset="0.0056"
   style="stop-color:#FFFFFF"
   id="stop743" /><stop
   offset="1"
   style="stop-color:#B6B6B6"
   id="stop744" /></linearGradient><linearGradient
   id="XMLID_23_"
   gradientUnits="userSpaceOnUse"
   x1="39.5098"
   y1="37.2246"
   x2="39.5098"
   y2="35.3806"><stop
   offset="0.0056"
   style="stop-color:#B6B6B6"
   id="stop750" /><stop
   offset="0.3669"
   style="stop-color:#9D9D9D"
   id="stop751" /><stop
   offset="0.7432"
   style="stop-color:#898989"
   id="stop752" /><stop
   offset="1"
   style="stop-color:#828282"
   id="stop753" /></linearGradient><linearGradient
   id="XMLID_24_"
   gradientUnits="userSpaceOnUse"
   x1="-323.353"
   y1="37.9873"
   x2="-323.353"
   y2="36.0762"
   gradientTransform="matrix(-1 0 0 0.75 -283.8438 8.2881)"><stop
   offset="0.0056"
   style="stop-color:#99FF66"
   id="stop759" /><stop
   offset="0.2358"
   style="stop-color:#68DE56"
   id="stop760" /><stop
   offset="0.4783"
   style="stop-color:#3BC147"
   id="stop761" /><stop
   offset="0.6954"
   style="stop-color:#1BAB3C"
   id="stop762" /><stop
   offset="0.8767"
   style="stop-color:#079E35"
   id="stop763" /><stop
   offset="1"
   style="stop-color:#009933"
   id="stop764" /></linearGradient><linearGradient
   id="XMLID_25_"
   gradientUnits="userSpaceOnUse"
   x1="39.4873"
   y1="36.6787"
   x2="39.5395"
   y2="35.2694"><stop
   offset="0.0056"
   style="stop-color:#33CC33"
   id="stop770" /><stop
   offset="0.3584"
   style="stop-color:#1BB433"
   id="stop771" /><stop
   offset="0.7397"
   style="stop-color:#07A033"
   id="stop772" /><stop
   offset="1"
   style="stop-color:#009933"
   id="stop773" /></linearGradient><linearGradient
   id="XMLID_26_"
   gradientUnits="userSpaceOnUse"
   x1="39.5098"
   y1="35.4824"
   x2="39.5098"
   y2="36.4035"><stop
   offset="0"
   style="stop-color:#FFFFFF"
   id="stop779" /><stop
   offset="0.0907"
   style="stop-color:#E8F7D6"
   id="stop780" /><stop
   offset="0.2274"
   style="stop-color:#C8ED9E"
   id="stop781" /><stop
   offset="0.3649"
   style="stop-color:#ADE46D"
   id="stop782" /><stop
   offset="0.5002"
   style="stop-color:#97DC46"
   id="stop783" /><stop
   offset="0.6328"
   style="stop-color:#85D627"
   id="stop784" /><stop
   offset="0.7621"
   style="stop-color:#79D212"
   id="stop785" /><stop
   offset="0.8863"
   style="stop-color:#72D004"
   id="stop786" /><stop
   offset="1"
   style="stop-color:#6FCF00"
   id="stop787" /></linearGradient><linearGradient
   id="XMLID_27_"
   gradientUnits="userSpaceOnUse"
   x1="8.1836"
   y1="35.3633"
   x2="20.9429"
   y2="35.3633"><stop
   offset="0"
   style="stop-color:#DFDFDF"
   id="stop793" /><stop
   offset="1"
   style="stop-color:#A2A2A2"
   id="stop794" /></linearGradient><linearGradient
   id="XMLID_28_"
   gradientUnits="userSpaceOnUse"
   x1="14.563"
   y1="33.7021"
   x2="14.563"
   y2="37.0254"><stop
   offset="0"
   style="stop-color:#828282"
   id="stop800" /><stop
   offset="1"
   style="stop-color:#A2A2A2"
   id="stop801" /></linearGradient><linearGradient
   xlink:href="#XMLID_17_"
   id="linearGradient821"
   x1="41.8715591"
   y1="9.40670395"
   x2="5.73796129"
   y2="29.2098923"
   gradientUnits="userSpaceOnUse"
   spreadMethod="pad" /></defs><sodipodi:namedview
   id="base" /><metadata
   id="metadata679"><xpacket>
begin='﻿' id='W5M0MpCehiHzreSzNTczkc9d'</xpacket><x:xmpmeta
   x:xmptk="XMP toolkit 3.0-29, framework 1.6"><rdf:RDF><rdf:Description
   rdf:about="uuid:d03802e5-3d70-417f-ac84-4fdaa7e8223d"><pdf:Producer>
Adobe PDF library 5.00</pdf:Producer></rdf:Description><rdf:Description
   rdf:about="uuid:d03802e5-3d70-417f-ac84-4fdaa7e8223d" /><rdf:Description
   rdf:about="uuid:d03802e5-3d70-417f-ac84-4fdaa7e8223d" /><rdf:Description
   rdf:about="uuid:d03802e5-3d70-417f-ac84-4fdaa7e8223d"><xap:CreateDate>
2004-02-17T13:34:29+02:00</xap:CreateDate><xap:ModifyDate>
2004-03-29T09:15:14Z</xap:ModifyDate><xap:CreatorTool>
Adobe Illustrator 10.0</xap:CreatorTool><xap:MetadataDate>
2004-02-23T15:55:56+01:00</xap:MetadataDate><xap:Thumbnails><rdf:Alt><rdf:li
   rdf:parseType="Resource"><xapGImg:format>
JPEG</xapGImg:format><xapGImg:width>
256</xapGImg:width><xapGImg:height>
256</xapGImg:height><xapGImg:image>
/9j/4AAQSkZJRgABAgEASABIAAD/7QAsUGhvdG9zaG9wIDMuMAA4QklNA+0AAAAAABAASAAAAAEA
AQBIAAAAAQAB/+4ADkFkb2JlAGTAAAAAAf/bAIQABgQEBAUEBgUFBgkGBQYJCwgGBggLDAoKCwoK
DBAMDAwMDAwQDA4PEA8ODBMTFBQTExwbGxscHx8fHx8fHx8fHwEHBwcNDA0YEBAYGhURFRofHx8f
Hx8fHx8fHx8fHx8fHx8fHx8fHx8fHx8fHx8fHx8fHx8fHx8fHx8fHx8fHx8f/8AAEQgBAAEAAwER
AAIRAQMRAf/EAaIAAAAHAQEBAQEAAAAAAAAAAAQFAwIGAQAHCAkKCwEAAgIDAQEBAQEAAAAAAAAA
AQACAwQFBgcICQoLEAACAQMDAgQCBgcDBAIGAnMBAgMRBAAFIRIxQVEGE2EicYEUMpGhBxWxQiPB
UtHhMxZi8CRygvElQzRTkqKyY3PCNUQnk6OzNhdUZHTD0uIIJoMJChgZhJRFRqS0VtNVKBry4/PE
1OT0ZXWFlaW1xdXl9WZ2hpamtsbW5vY3R1dnd4eXp7fH1+f3OEhYaHiImKi4yNjo+Ck5SVlpeYmZ
qbnJ2en5KjpKWmp6ipqqusra6voRAAICAQIDBQUEBQYECAMDbQEAAhEDBCESMUEFURNhIgZxgZEy
obHwFMHR4SNCFVJicvEzJDRDghaSUyWiY7LCB3PSNeJEgxdUkwgJChgZJjZFGidkdFU38qOzwygp
0+PzhJSktMTU5PRldYWVpbXF1eX1RlZmdoaWprbG1ub2R1dnd4eXp7fH1+f3OEhYaHiImKi4yNjo
+DlJWWl5iZmpucnZ6fkqOkpaanqKmqq6ytrq+v/aAAwDAQACEQMRAD8A9U4q7FXYq7FXYq7FXYq7
FXYq7FXYq7FXYq7FXYq7FXYq7FXYq7FXYq7FXYq7FXYq7FXYq7FXYq7FXYq7FXYq7FXYq7FXYq7F
XYq7FXYq7FXYq7FXYq7FXYq7FXYq7FXYq7FXYq7FXYq7FXYq7FXYq7FXYq7FXYq7FXYq7FXYq7FX
Yq7FXYq7FXYq7FXYq7FXYq7FXYq7FXYq7FXYq7FXYq7FXYq7FXYq7FXYq7FXYq7FXYq7FXYq7FXY
q7FXYq7FXYq7FXYq7FXYq7FXYq7FXYq7FXYq7FXYq7FXYq7FXYq7FXYq7FXYq7FXYq7FXYq7FXYq
7FXYq7FXYq7FXYq7FXYq7FXYq7FXYq7FXYq7FXYq7FXYq7FXYq7FXYq7FXYq7FXYq7FXYq7FXYq7
FXYq7FXYq7FXYqxPzn+Zvlfyp+5vpmn1AjkthbgNJQ9C9SFQf6xr4A5IRJV5+/8AzkqgYhPLpZOx
N5Q0+QgP68n4aLW/9DLf9+5/0+/9eMfDW3f9DLf9+5/0+/8AXjHw1t3/AEMt/wB+5/0+/wDXjHw1
t3/Qy3/fuf8AT7/14x8Nbd/0Mt/37n/T7/14x8Nbd/0Mt/37n/T7/wBeMfDW3f8AQy3/AH7n/T7/
ANeMfDW3f9DLf9+5/wBPv/XjHw1t3/Qy3/fuf9Pv/XjHw1t3/Qy3/fuf9Pv/AF4x8Nbd/wBDLf8A
fuf9Pv8A14x8Nbd/0Mt/37n/AE+/9eMfDW3f9DLf9+5/0+/9eMfDW3f9DLf9+5/0+/8AXjHw1t3/
AEMt/wB+5/0+/wDXjHw1t3/Qy3/fuf8AT7/14x8Nbd/0Mt/37n/T7/14x8Nbd/0Mt/37n/T7/wBe
MfDW1yf85KoWAfy6VTuReVNPkYB+vHw1t6B5M/M3yv5r/c2MzQagByawuAFkoOpShKuP9U18QMgY
kJZZkVdirsVdirsVdirsVdirsVY95+8z/wCGfKt9qygNcRqI7VG3BmkPFKjwWvI+wwxFlXzRoukX
XmC+uNR1KZ5VZy08rGryyNufiP45kgMWVp5d0RFCiyiIHTkvI/eanJUqtb+XNFkmRfqMNCd/gHQb
40qcDy55f/6ttt/yJT+mRVseW/L3/Vttf+RKf0xVcPLfl3/q2Wv/ACJT+mKrh5a8u/8AVstf+RKf
0xVcPLPlz/q2Wv8AyJT+mKrh5Z8t/wDVrtf+RKf0wKuHljy3/wBWu1/5Ep/TFK8eV/LX/VrtP+RK
f0xVcPK3ln/q1Wn/ACJT+mKrx5V8sf8AVqtP+RKf0wKvHlTyv/1abT/kTH/TFV48p+Vv+rTaf8iY
/wCmKrx5S8q/9Wiz/wCREf8ATBaqi+UPKn/Vos/+REf9MbVePJ/lP/qz2f8AyIj/AKYLVUXyd5S/
6s1n/wAiI/6Y2rCNX8q6LaajPCLGEIGqg4D7Lbj8Dlo3CEC/l3RHUqbKIA/yrxP3ihw0rE9b0i58
v31vqGnTPEocNBKpIeKRdx8Q/DIkK+kPy485L5q8tw3slFv4gI72Ndh6g25AeDUrmNIUWTKcCuxV
2KuxV2KuxV2KuxV5J/zkXqAj8vaXp4NGubppqeKwRlT+MwyzGN0FhPlK29HQreoo0nKQ/wCyY0/C
mZAQnFMKovT4/iZ/DYYCqPBwK2Diq4HAq4HFVwOKrwcVXA4FXg4pXg4qvBwKvBxVUBxVerYFVFbF
VRWwKqK2Ksc83Wo5wXQH2gY3+Y3X+OTgUMdplipP5ttvW0K4oKtHxkH+xYV/CuAqnP8Azj7qRj1G
5sq/DJUkfNQR/wAmzmPkG6Q94ytLsVdirsVdirsVdirsVfP/APzkNqHreaLCxU1W0tOZA7PM7VH/
AAKLl2MbIK+xtvq9lbwdPSjRP+BUDLkK9MVTC2ThEo7nc/TgVVBxVcDirYOKrgcCrgcVXA4qvBxV
cDgVeDileDiq8HAq8HFVQHFV6tgVUVsVVFbAqF1m3FzpsydWUc0+a7/q2wxO6sLplqFC+tvrFlcQ
dfVjdP8AglIxVjv5Rah9T8329TRXK1/4ILT7nOU5BskPp/KUuxV2KuxV2KuxV2KuxV8yfmDc/pf8
071a8o0uo7anYLAFjf8AFWzIgNkFlFMsQuROTgeJxVHDAreKtg4quBxVsHFVwOBVwOKrgcVXg4qu
BwKvBxSvBxVeDgVeDiqoDiq9WwKqK2KqgOBWF31t9XvJYeyseP8AqncfhlwKFCmKvPtNJ07ziFXY
JcOi/JiQv6xlcxskPq6znFxaQzg1Esav/wAEK5jpVsVdirsVdirsVdiq2WRIo3lkPGNAWdj2AFSc
VfK3l2R9T83TX8m7yPPdP85Cf4vmWAxZ3xwqqwL8RbwxVEYFcDireKtg4quBxVsHFVwOBVwOKrgc
VXg4quBwKvBxSvBxVeDgVeDiqoDiq9WwKqK2KpH5it6TRzgfbHFvmOmTiUJPxySvP/NiG08yfWF2
LCOZf9jt+tMBCvpXyVdi68s2MgPLinCv+qSB+GYjJO8VdirsVdirsVdiqQef9Q/R/krWboHiwtZI
0bweUemp/wCCcZKI3V8//l/bVkvLgjoEjU/Mkn9QzJYsyphVWjFF+e+Kr8Ct4q4HFW8VbBxVcDir
YOKrgcCrgcVXA4qvBxVcDgVeDileDiq8HAq8HFVQHFV6tgVD6rD61jIBuyfGv0dfwwjmrGqZYhhv
5gW1JLO4A6h42PyII/WcCvYfyZ1D615UWMmrQla/SvE/ihzGkN2TPsirsVdirsVdirsVed/ntf8A
1fySLYHe9uooiP8AJSsp/GMZZjG6C858j23p6L6lN55WevsKJ/xrmQhkIXfFVTArsVbxVvFXA4q3
irYOKrgcVbBxVcDgVcDiq4HFV4OKrgcCrwcUrwcVXg4FXg4qqA4qvBBFD0PXArGbiExTvH/KSB8u
2WBDG/PFt6mi+pTeCVXr7Gqf8bYVZP8AkHqHwXVmT2PEf6pDf8bnMfIN0h7HlaXYq7FXYq7FXYq8
W/5yFv8AlcaPpwP2EluJB48yqJ/xBsuxBBQeg231fRrOKlCIlZh7sOR/E5ahHgYq3irsVdireKt4
q4HFW8VbBxVcDirYOKrgcCrgcVXA4qvBxVcDgVeDileDiq8HAq8HFVQHFUr1eKkyyjo4ofmMlFCQ
69bfWNGvIqVJiZlHuo5D8RhVLfyWv/q3mhYiaCai/wDBAr+sjKsoSH0PlKXYq7FXYq7FXYq+ePzh
uW1H8xJLRTX6ulvaJ/sh6n/EpTmTjGyCyNUCqFUUUCgHsMkhxxVrFXYq7FXYq3ireKuBxVvFWwcV
XA4q2Diq4HAq4HFVwOKrwcVXA4FXg4pXg4qvBwKvBxVRv4/Utm8U+IfR1whUoZAylWFVIoR7HJIe
feUZ30zzZCK0aKRkP+wbl/xpkcg2SH1IrBlDDowqPpzGS3irsVdirsVdir5y02yl80/mjcek4RZr
u4nEpHIIkfJkNKiv2VGZN8MWL1kfl2oArqUhPciNAP45X4qaWn8u0/6uUv8AyLjx8XyWlh/Lwf8A
Vzl/5Fx4+L5LS0/l7/2tJf8AkVHh8XyWlp/L4/8AV0l/5FR4+L5LSw/l+/8A1dZf+RUePi+S0tPk
CT/q7S/8iov6Y+L5LTX+Apf+rtL/AMiov6Y+L5LS0+RJv+rtL/yKi/pj4vktLT5Fn/6u0v8AyJi/
pg8XyWmv8D3H/V2l/wCRMX9MfF8lpb/gm6/6u8v/ACJi/pj4vktNHyXdj/pbyf8AImL+mPirTR8m
3g/6W8n/ACJi/pj4q0tPlC+H/S4k/wCRMX9MfFWmj5Svx/0uJP8AkRF/THxVpafKuoj/AKXEn/Ii
H+mPirTR8r6kP+lzJ/yIh/pj4i00fLWqD/pcyf8AIiH+mDxFpr/DurD/AKXUn/IiH+mPiLTX+H9Y
H/S6k/5EQ/0x8RaaOha0P+l1J/0jw/0x8RaWtomt0I/TT0PX/R4P6Y+ItIV/LGq8Tx1pw3Ym3hI+
6gw+KVp53rFncaV5q4XDiSQSRyvKq8FfmAWYLU0qScsu4ofSvl26+taHYz1qWhUE+6jifxGYzJMc
VdirsVdiqB12/wD0fomoX9aG1t5Zh80QsPxGECyrxr8htPMvmDUL87rbWwj368pnBB+6M5flOyA9
vOY6VpxVYcVWnFVhxVYcVWnFVhxVacVWHFVhxVacVWHFVpxVYcVWnFVhxVYcVWnFVhxVacVWHFVh
xVacVeY/mja8NWtbkbCaHifnGx3+5xl+I7IL2H8sL/655UgJNWjJB/2QD/8AG2UkUUsswK7FXYq7
FWH/AJt331TyJqABo9yY4E/2cgLf8IGyeMboKQfkPYCLy9qF6Vo1zciMN4rCgI/GRslmO6h6WcqS
tOKrDiq04qsOKrDiq04qsOKrTiqw4qsOKrTiqw4qtOKrDiq04qsOKrDiq04qsOKrTiqw4qsOKrTi
rCvzQteelWtwBUwzFSe4Ein+KjLcJ3QWS/kdf+ppdzak7pRqfIkfqIyOQbqHp+QS7FXYq7FXln59
33DSdLsAd553nI9oU4j/AJO5dhG6Cyj8sLA2XkXS4z9qWNp2PT++cuv/AArDIZDukMoIPhkFWlW8
MVWlG8Diqwxv/KcVWmKT+U4qtMUv8p+7FVphl/kP3YqtME38h+7FVpt5/wCRvuxVYbaf/fbfdiq0
2tx/vtvuxVabW5/3033YqtNpdf76b7sVWmzuv99N9xxVabK7/wB8t9xxVYbK8/3y/wBxxVabG8/3
y/3HFVpsL3/fD/ccVWnT77/fD/ccVWnTr7/fD/8AAnFVh02//wCWd/8AgTiq06bqH/LPJ/wJxVad
M1H/AJZ5P+BOKrG0zUQK/VpP+BOKsZ872bTeW72Mgq8SiShG49Ngx/AZPGd1KVfkjfelrclsTQSq
wp81qP8AiGTzDdAe45Sl2KuxV2KvDfzvvHuvNdrYxVf6tbIPTAqfUlcmgA8V45k4hsgvY7CGLT9N
trRSFitIUiB7BY0C/wAMxyUqLa9aA0Cuw8QBT8SMCtf4gtf5JPuX+uKu/wAQWv8AJJ9y/wBcVd/i
C1/kk+5f64q7/EFr/JJ9y/1xV3+ILX+ST7l/rirv8QWv8kn3L/XFXf4gtf5JPuX+uKu/xBa/ySfc
v9cVd/iC1/kk+5f64q7/ABBa/wAkn3L/AFxV3+ILX+ST7l/rirv8QWv8kn3L/XFXf4gtf5JPuX+u
Ku/xBa/ySfcv9cVd/iC1/kk+5f64q7/EFr/JJ9y/1xV3+ILX+ST7l/rirv8AEFr/ACSfcv8AXFXf
4gtf5JPuX+uKu/xBa/ySfcv9cVd/iC1/kk+5f64q7/EFr/JJ9y/1xVtdetCaFXUeJAp+BOKqOv6V
b6vpc8QAMksTJHJ4hlIofY1wg0rwn8u7xrDzXbF6oQ4DqdiCGAIP0E5kZRsgPpHMZLsVdirsVeFe
b/i/OaMNuPrunih8OEOZMfoQ9d1By1q6g9afrzGSlHp4q708Vd6eKu9PFXenirvTxV3p4q708Vd6
eKu9PFXenirvTxV3p4q708Vd6eKu9PFXenirvTxV3p4q708Vd6eKu9PFXenirvTxVN9PcraopPSv
68VeBTfB55vSm3G8uqD5M+ZMvoQ+kLOQy2kEh6vGrH6VBzGSq4q7FXYq8J85kr+cHIdRd2BH0Rw5
kw+hi9anblGRmMyQvp4q708Vd6eKu9PFXenirvTxV3p4q708Vd6eKu9PFXenirvTxV3p4q708Vd6
eKu9PFXenirvTxV3p4q708Vd6eKu9PFXenirvTxVFQNxjAxV4I5Lecrtj1N1ck/SXzJl9DF9H6b/
AMc61/4wx/8AERmMyRGKuxV2KvCfOo/5C63/ADFWP/JuHMqH0MXqqHk1MxWSr6WKpH5gvvMNnNEu
l6fHeRspMjvIqcWr0oWXFUoPmDzyOuiQ/wDI9P8AmvFUx8v6n5lv714L+xisoVjLrKrCWrBlHGiv
4E4qgdS8yeZ7fULi3tNOhuYIXKLMX4E0/wAkviqZ+Z9S1fSordrOKK7kmZl9NgY6BRWtS+Ku0TUd
YvtIub27hitJoWcLCAZAVRAwNQ/cmmKpTonmnzFqGp29rNYwQ285NZwxYgcSQePPvTFVXzN5l1zS
dSFpa20N0nprIztVCCxIpTn7Yqk0n5ieYYqNLp1uqEgE8mPX5Nir0f0sVd6WKu9LFXelirvSxV3p
Yq70sVd6WKu9LFXelirvSxV3pYq70sVd6WKqTni1MVeFygDzjeU6C6uafe+ZM/oYvo3Tf+Oda/8A
GGP/AIiMxmSIxV2KuxV4V52/8m05/wCXqy/5Nw5lQ+hi9Qsm5XCr7H9WYrJMvSxVA6ivFl+WKpZJ
3xVX0f8A3sf/AIxn9YxVJbj/AHuvv+Yh/wCGKph5w+1Yf68n/EcVX6L/AMcC9+cv/JsYqx7yt/x0
rD5f8aHFV3nT/jvP/wAYIv1virFb9eUQH+Uv68Ve1elirvSxV3pYq70sVd6WKu9LFXelirvSxV3p
Yq70sVd6WKsX1rzLcx60mi6aIhdFDLJLO3BERSASTRu5pspOU5c8Mf1GmjJnEZCP8RU3ufNUaF1v
dNmK7iIO6lvYEwgZT+exfzgg5j5fP9iZeVNfh1/TFu0Xg3R196ke/cZlQmJCxybMOWOSIlHkURet
xuGX2H6sk2PEZf8AlL7s/wDL1cfrfMqf0MX0Xpv/ABzrX/jDH/xEZiskRirsVdirwv8AMStn+Zb3
cwpEZLScH/IREUn70OZWPeDEvR9OuY0u42c0Q7Fu24zFZMjEYIqNwehxVB39jPMymMCgG9TTFUA+
jXx6Kv34qvsdLvbaZpHTkCpUBSK1JHiRiqWv5c1WS4uZfTVVmmZ0BYVoaUrSuKonXtH1HUHtfQho
IWcuzsoG60FKEnFV1jpOoWul3Nq8XOWbnx4stPiQKK1I7jFUq0TyprNldWs80a8YR8YVwT9kjbFX
eYPK+s6lqjXMEIWMxIg5uoNVLE9C3jiqTzeQPMTAUijbcGgkH8cVemelirvSxV3pYq70sVd6WKu9
LFXelirvSxV3pYq70sVd6WKsR81/l7DrN0t7BMbe7UUDqSvcnqPmcwtZohmHOi4Gt0Az0bMZDqkP
/Kp9Xf4ZNUcxn7QEjbj7s1sexADzHycD+R5nnlNfjzZt5c8tWuhactpCaqu7OdvfN3ixiEREdHcY
MMcUBCPIILUbmN7uRkNUG3LtsOuWNzxeGRbrzJPcRbpJNNIvyctT/iWZWTaDEPo3Tf8AjnWv/GGP
/iIzFZIjFXYq7FXn35teUJdUsY9XskL3lipWaNd2eCtdvdDU/InLsU62QWGeWfO0MNsllqZK+kOM
VzQkcR0VwN9vHJZMXUKCylPM2lBRx1KFR4eso/CuU8Eu5Nrv8T6Z/wBXOL/kcv8AXHgPctu/xPpn
/Vzi/wCRy/1x4D3Lbv8AE+mf9XOL/kcv9ceA9y27/E+mf9XOL/kcv9ceA9y27/E+mf8AVzi/5HL/
AFx4D3Lbv8T6Z/1c4v8Akcv9ceA9y27/ABPpn/Vzi/5HL/XHgPctu/xPpn/Vzi/5HL/XHgPctu/x
Ppn/AFc4v+Ry/wBceA9y27/E+mf9XOL/AJHL/XHgPctu/wAT6Z/1c4v+Ry/1x4D3Lbv8T6Z/1c4v
+Ry/1x4D3Lbv8T6Z/wBXOL/kcv8AXHgPctu/xPpn/Vzi/wCRy/1x4D3Lbv8AE+mf9XOL/kcv9ceA
9y27/E+mf9XOL/kcv9ceA9y27/E+mf8AVzi/5HL/AFx4D3Lbv8T6Z/1c4v8Akcv9ceA9y27/ABPp
n/Vzi/5HL/XHgPctu/xPpn/Vzi/5HL/XHgPctu/xPpn/AFc4v+Ry/wBceA9y27/E+mf9XOL/AJHL
/XHgPctrX8zaUVPLUoWHh6yn8K48Eu5bYt5m87QzWz2WmEt6o4y3NCBxPVUB338cux4upQShvJWg
z3F7GeB5uV28FrsD/rHI5Z3soe9wxiKJIx0RQo+QFMpSuxV2KuxV2KvOPN/5VWt5PJfaUPRkkJaS
Bdl5HuB/TLI5SEUwWbyBq0TlHqCOxAH62Byzx/JaWf4F1Px/4h/zXj4/ktO/wLqfj/xD/mvHx/Ja
d/gXU/H/AIh/zXj4/ktO/wAC6n4/8Q/5rx8fyWnf4F1Px/4h/wA14+P5LTv8C6n4/wDEP+a8fH8l
p3+BdT8f+If814+P5LTv8C6n4/8AEP8AmvHx/Jad/gXU/H/iH/NePj+S07/Aup+P/EP+a8fH8lp3
+BdT8f8AiH/NePj+S07/AALqfj/xD/mvHx/Jad/gXU/H/iH/ADXj4/ktO/wLqfj/AMQ/5rx8fyWn
f4F1Px/4h/zXj4/ktO/wLqfj/wAQ/wCa8fH8lp3+BdT8f+If814+P5LTv8C6n4/8Q/5rx8fyWnf4
F1Px/wCIf814+P5LTv8AAup+P/EP+a8fH8lp3+BdT8f+If8ANePj+S07/Aup+P8AxD/mvHx/Jad/
gXU/H/iH/NePj+S0m2jfl9dySqfTLsO5+Kn0D4R9JyEspK09R8t+WINJjDsAZyPnSvXfucqSnuKu
xV2KuxV2KuxV2KuxV2KuxV2KuxV2KuxV2KuxV2KuxV2KuxV2KuxV2KuxV2KuxV2KuxV2KuxV2Kux
V2KuxV2KuxV2KuxV2KuxV2KuxV2KuxV2KuxV2KuxV2KuxV2KuxV2KuxV2KuxV2KuxV2KuxV2KuxV
2KuxV2KuxV2KuxV2KuxV2KuxV2KuxV2KuxV2KuxV2KuxV2KuxV2KuxV2KuxV2KuxV2KuxV2KuxV2
KuxV2KuxV2KuxV2KuxV2KuxV2KuxV2KuxV2KuxV2KuxV2KuxV2KuxV2KuxV2KuxV2KuxV2KuxV2K
uxV2KuxV2KuxV2KuxV2KuxV2KuxV2KuxV2KuxV2KuxV2KuxV2KuxV2KuxV2KuxV2KuxV2KuxV2Ku
xV2KuxV2KuxV2KuxV2KuxV//2Q==</xapGImg:image></rdf:li></rdf:Alt></xap:Thumbnails></rdf:Description><rdf:Description
   rdf:about="uuid:d03802e5-3d70-417f-ac84-4fdaa7e8223d"><xapMM:DocumentID>
uuid:685b0065-06bf-4184-84b4-f95bb4aec596</xapMM:DocumentID></rdf:Description><rdf:Description
   rdf:about="uuid:d03802e5-3d70-417f-ac84-4fdaa7e8223d"><dc:format>
image/svg+xml</dc:format><dc:title><rdf:Alt><rdf:li
   xml:lang="x-default">
hdd_mount.ai</rdf:li></rdf:Alt></dc:title></rdf:Description></rdf:RDF></x:xmpmeta><xpacket>
end='w'</xpacket></metadata><path
   style="font-size:12;opacity:0.2;"
   d="M10.389,9c-1.491,0-2.717,1.119-2.853,2.603l0.03-0.169l-0.088,0.489l0.031-0.172l-0.089,0.488     l0.03-0.169l-0.088,0.486l0.03-0.169l-0.089,0.488l0.03-0.169l-0.089,0.487l0.03-0.167L7.186,13.51l0.03-0.169l-0.089,0.485     l0.03-0.165l-0.088,0.482l0.029-0.164L7.01,14.463l0.03-0.167l-0.088,0.483l0.029-0.164l-0.088,0.481l0.029-0.162l-0.087,0.48     l0.03-0.165l-0.088,0.481l0.029-0.163l-0.087,0.481l0.028-0.162L6.66,16.368l0.029-0.161l-0.087,0.479l0.028-0.16l-0.087,0.477     l0.029-0.161c0,0-0.087,0.479-0.087,0.479c0,0,0.029-0.16,0.029-0.16l-0.087,0.477l0.028-0.158l-0.087,0.477l0.028-0.16     c0,0-0.086,0.475-0.086,0.476c0-0.001,0.028-0.157,0.028-0.157l-0.086,0.477l0.028-0.158l-0.086,0.473l0.028-0.156     c0,0-0.086,0.475-0.086,0.476c0-0.001,0.028-0.157,0.028-0.157l-0.086,0.476l0.028-0.157l-0.086,0.474l0.027-0.156L5.96,20.179     l0.027-0.153l-0.085,0.472l0.027-0.156l-0.085,0.472l0.027-0.153l-0.085,0.471l0.027-0.153l-0.086,0.472l0.027-0.153l-0.085,0.47     l0.027-0.151l-0.085,0.47l0.027-0.152l-0.085,0.47l0.027-0.152l-0.085,0.47l0.027-0.151l-0.085,0.468l0.026-0.15l-0.085,0.467     l0.026-0.149l-0.085,0.467l0.026-0.148l-0.084,0.467l0.026-0.149l-0.084,0.468l0.026-0.149l-0.084,0.466l0.026-0.149     l-0.084,0.465l0.026-0.146l-0.084,0.465l0.026-0.147l-0.084,0.464l0.026-0.146l-0.085,0.466l0.026-0.146l-0.084,0.463     l0.026-0.147l-0.085,0.467l0.026-0.146l-0.084,0.463l0.025-0.145l-0.083,0.463l0.025-0.145c0,0-0.083,0.459-0.083,0.46     c0-0.001,0.025-0.143,0.025-0.143l-0.084,0.463l0.025-0.145L4.5,28.122l0.025-0.145l-0.084,0.462l0.025-0.142l-0.083,0.459     l0.025-0.143l-0.083,0.461l0.025-0.143l-0.083,0.459l0.025-0.141l-0.083,0.457l0.024-0.14L4.15,30.027l0.024-0.141l-0.083,0.457     l0.024-0.14L4.034,30.66l0.024-0.138c-0.066,0.267-0.1,0.534-0.1,0.795v5.901c0,1.81,1.472,3.281,3.281,3.281h34.646     c1.81,0,3.281-1.472,3.281-3.281v-5.901c0-0.263-0.034-0.531-0.102-0.798l0.025,0.143l-0.082-0.457l0.024,0.14l-0.084-0.459     l0.025,0.14l-0.084-0.46l0.025,0.143l-0.083-0.456l0.024,0.14l-0.084-0.461l0.025,0.146l-0.082-0.46     c0.024,0.142-0.059-0.318-0.059-0.318v-0.001l0.024,0.14l-0.084-0.459l0.025,0.146l-0.083-0.462l0.025,0.143l-0.084-0.463     l0.025,0.144l-0.084-0.461l0.025,0.146l-0.083-0.461l0.024,0.144l-0.083-0.463l0.024,0.142l-0.083-0.46l0.025,0.145l-0.084-0.462     l0.025,0.145l-0.085-0.466l0.026,0.147l-0.084-0.464l0.025,0.148l-0.084-0.467l0.026,0.148l-0.085-0.467l0.026,0.147     l-0.084-0.464l0.025,0.15l-0.086-0.473l0.027,0.155l-0.084-0.468l0.025,0.145l-0.083-0.462l0.025,0.145l-0.085-0.465l0.026,0.15     l-0.085-0.468l0.026,0.15l-0.085-0.469l0.027,0.152l-0.087-0.473l0.028,0.155l-0.085-0.47l0.026,0.148     c0,0-0.085-0.466-0.085-0.467c0,0.001,0.026,0.151,0.026,0.151l-0.085-0.47l0.026,0.151l-0.086-0.471l0.027,0.155l-0.086-0.475     l0.028,0.159l-0.086-0.475l0.027,0.155c0,0-0.086-0.473-0.086-0.473c0,0,0.027,0.157,0.027,0.157l-0.086-0.477l0.027,0.159     l-0.085-0.475l0.027,0.153l-0.087-0.474l0.028,0.156l-0.088-0.477l0.029,0.166l-0.086-0.48l0.027,0.157l-0.087-0.477l0.029,0.161     L42.67,17.48l0.028,0.159l-0.087-0.477l0.028,0.158l-0.087-0.478c0,0.001,0.028,0.159,0.028,0.159l-0.087-0.478l0.029,0.166     l-0.088-0.482l0.029,0.161l-0.087-0.479l0.028,0.161l-0.088-0.479l0.029,0.164l-0.088-0.483l0.029,0.164l-0.087-0.48l0.029,0.163     l-0.088-0.481l0.029,0.164l-0.089-0.484l0.03,0.167l-0.087-0.482l0.028,0.162c0,0-0.088-0.481-0.088-0.481     c0,0.001,0.03,0.166,0.03,0.166l-0.09-0.487l0.031,0.171l-0.088-0.485l0.029,0.167c0,0-0.088-0.486-0.089-0.487     c0.001,0.001,0.03,0.168,0.03,0.168s-0.088-0.484-0.088-0.486c0,0.002,0.029,0.167,0.029,0.167l-0.088-0.484l0.03,0.169     l-0.089-0.489l0.03,0.171l-0.09-0.49l0.031,0.171C41.453,10.119,40.227,9,38.735,9H10.389z"
   id="path681" /><path
   style="font-size:12;opacity:0.2;"
   d="M10.201,8.625c-1.491,0-2.717,1.119-2.853,2.603l0.03-0.169L7.29,11.547l0.031-0.172l-0.089,0.488     l0.03-0.169L7.173,12.18l0.03-0.169L7.115,12.5l0.03-0.169l-0.089,0.487l0.03-0.167l-0.088,0.484l0.03-0.169l-0.089,0.485     l0.03-0.165l-0.088,0.482l0.029-0.164l-0.087,0.483l0.03-0.167l-0.088,0.483l0.029-0.164l-0.088,0.481l0.029-0.162l-0.087,0.48     l0.03-0.165l-0.088,0.481l0.029-0.163l-0.087,0.481l0.028-0.162l-0.087,0.479l0.029-0.161l-0.087,0.479l0.028-0.16l-0.087,0.477     l0.029-0.161c0,0-0.087,0.479-0.087,0.479c0,0,0.029-0.16,0.029-0.16l-0.087,0.477l0.028-0.158l-0.087,0.477l0.028-0.16     c0,0-0.086,0.475-0.086,0.476c0-0.001,0.028-0.157,0.028-0.157l-0.086,0.477l0.028-0.158l-0.086,0.473l0.028-0.156     c0,0-0.086,0.475-0.086,0.476c0-0.001,0.028-0.157,0.028-0.157l-0.086,0.476l0.028-0.157l-0.086,0.474l0.027-0.156l-0.085,0.472     l0.027-0.153l-0.085,0.472l0.027-0.156l-0.085,0.472l0.027-0.153l-0.085,0.471l0.027-0.153l-0.086,0.472l0.027-0.153l-0.085,0.47     l0.027-0.151l-0.085,0.47l0.027-0.152l-0.085,0.47l0.027-0.152l-0.085,0.47l0.027-0.151l-0.085,0.468l0.026-0.15L5.188,22.98     l0.026-0.149L5.13,23.298l0.026-0.148l-0.084,0.467l0.026-0.149l-0.084,0.468l0.026-0.149l-0.084,0.466l0.026-0.149l-0.084,0.465     l0.026-0.146l-0.084,0.465l0.026-0.147L4.78,25.204l0.026-0.146l-0.085,0.466l0.026-0.146L4.663,25.84l0.026-0.147l-0.085,0.467     l0.026-0.146l-0.084,0.463l0.025-0.145l-0.083,0.463l0.025-0.145c0,0-0.083,0.459-0.083,0.46c0-0.001,0.025-0.143,0.025-0.143     L4.371,27.43l0.025-0.145l-0.083,0.462l0.025-0.145l-0.084,0.462l0.025-0.142l-0.083,0.459l0.025-0.143L4.138,28.7l0.025-0.143     L4.08,29.017l0.025-0.141l-0.083,0.457l0.024-0.14l-0.083,0.459l0.024-0.141l-0.083,0.457l0.024-0.14l-0.083,0.456l0.024-0.138     c-0.066,0.267-0.1,0.534-0.1,0.795v5.901c0,1.81,1.472,3.281,3.281,3.281h34.646c1.81,0,3.281-1.472,3.281-3.281v-5.901     c0-0.263-0.034-0.531-0.102-0.798l0.025,0.143l-0.082-0.457l0.024,0.14l-0.084-0.459l0.025,0.14l-0.084-0.46l0.025,0.143     l-0.083-0.456l0.024,0.14l-0.084-0.461l0.025,0.146l-0.082-0.46c0.024,0.142-0.059-0.318-0.059-0.318v-0.001l0.024,0.14     l-0.084-0.459l0.025,0.146l-0.083-0.462l0.025,0.143l-0.084-0.463l0.025,0.144l-0.084-0.461l0.025,0.146l-0.083-0.461     l0.024,0.144l-0.083-0.463l0.024,0.142l-0.083-0.46l0.025,0.145l-0.084-0.462l0.025,0.145l-0.085-0.466l0.026,0.147l-0.084-0.464     l0.025,0.148l-0.084-0.467l0.026,0.148l-0.085-0.467l0.026,0.147l-0.084-0.464l0.025,0.15l-0.086-0.473l0.027,0.155l-0.084-0.468     l0.025,0.145l-0.083-0.462l0.025,0.145l-0.085-0.465l0.026,0.15l-0.085-0.468l0.026,0.15l-0.085-0.469l0.027,0.152L43.3,21.557     l0.028,0.155l-0.085-0.47l0.026,0.148c0,0-0.085-0.466-0.085-0.467c0,0.001,0.026,0.151,0.026,0.151l-0.085-0.47l0.026,0.151     l-0.086-0.471l0.027,0.155l-0.086-0.475l0.028,0.159L42.95,19.65l0.027,0.155c0,0-0.086-0.473-0.086-0.473     c0,0,0.027,0.157,0.027,0.157l-0.086-0.477l0.027,0.159l-0.085-0.475l0.027,0.153l-0.087-0.474l0.028,0.156l-0.088-0.477     l0.029,0.166l-0.086-0.48l0.027,0.157l-0.087-0.477l0.029,0.161l-0.087-0.477l0.028,0.159l-0.087-0.477l0.028,0.158l-0.087-0.478     c0,0.001,0.028,0.159,0.028,0.159l-0.087-0.478l0.029,0.166l-0.088-0.482l0.029,0.161l-0.087-0.479l0.028,0.161l-0.088-0.479     l0.029,0.164l-0.088-0.483l0.029,0.164l-0.087-0.48l0.029,0.163l-0.088-0.481l0.029,0.164l-0.089-0.484l0.03,0.167l-0.087-0.482     l0.028,0.162c0,0-0.088-0.481-0.088-0.481c0,0.001,0.03,0.166,0.03,0.166l-0.09-0.487l0.031,0.171l-0.088-0.485l0.029,0.167     c0,0-0.088-0.486-0.089-0.487c0.001,0.001,0.03,0.168,0.03,0.168s-0.088-0.484-0.088-0.486c0,0.002,0.029,0.167,0.029,0.167     l-0.088-0.484l0.03,0.169l-0.089-0.489l0.03,0.171l-0.09-0.49l0.031,0.171c-0.136-1.484-1.362-2.603-2.854-2.603H10.201z"
   id="path682" /><path
   style="font-size:12;fill:url(#XMLID_15_);"
   d="M9.826,8.25c-1.491,0-2.717,1.119-2.853,2.603l0.03-0.169l-0.088,0.489L6.946,11     l-0.089,0.488l0.03-0.169l-0.088,0.486l0.03-0.169L6.74,12.125l0.03-0.169l-0.089,0.487l0.03-0.167L6.623,12.76l0.03-0.169     l-0.089,0.485l0.03-0.165l-0.088,0.482l0.029-0.164l-0.087,0.483l0.03-0.167L6.39,14.029l0.029-0.164l-0.088,0.481l0.029-0.162     l-0.087,0.48l0.03-0.165l-0.088,0.481l0.029-0.163l-0.087,0.481l0.028-0.162l-0.087,0.479l0.029-0.161L6.04,15.936l0.028-0.16     l-0.087,0.477l0.029-0.161c0,0-0.087,0.479-0.087,0.479c0,0,0.029-0.16,0.029-0.16l-0.087,0.477l0.028-0.158l-0.087,0.477     l0.028-0.16c0,0-0.086,0.475-0.086,0.476c0-0.001,0.028-0.157,0.028-0.157l-0.086,0.477l0.028-0.158l-0.086,0.473l0.028-0.156     c0,0-0.086,0.475-0.086,0.476c0-0.001,0.028-0.157,0.028-0.157l-0.086,0.476l0.028-0.157l-0.086,0.474l0.027-0.156l-0.085,0.472     l0.027-0.153l-0.085,0.472l0.027-0.156l-0.085,0.472l0.027-0.153l-0.085,0.471l0.027-0.153l-0.086,0.472l0.027-0.153l-0.085,0.47     l0.027-0.151l-0.085,0.47l0.027-0.152l-0.085,0.47l0.027-0.152l-0.085,0.47l0.027-0.151l-0.085,0.468l0.026-0.15l-0.085,0.467     l0.026-0.149l-0.085,0.467l0.026-0.148l-0.084,0.467l0.026-0.149l-0.084,0.468l0.026-0.149L4.58,23.878l0.026-0.149l-0.084,0.465     l0.026-0.146l-0.084,0.465l0.026-0.147l-0.084,0.464l0.026-0.146l-0.085,0.465l0.026-0.146l-0.084,0.463l0.026-0.147     l-0.085,0.467l0.026-0.146l-0.084,0.463l0.025-0.145l-0.083,0.463l0.025-0.145c0,0-0.083,0.459-0.083,0.46     c0-0.001,0.025-0.143,0.025-0.143l-0.084,0.463l0.025-0.145l-0.083,0.462l0.025-0.145l-0.084,0.462l0.025-0.142l-0.083,0.459     l0.025-0.143l-0.083,0.461l0.025-0.143l-0.083,0.459l0.025-0.141l-0.083,0.457l0.024-0.14l-0.083,0.459l0.024-0.141L3.53,29.594     l0.024-0.14L3.471,29.91l0.024-0.138c-0.066,0.267-0.1,0.534-0.1,0.795v5.901c0,1.81,1.472,3.281,3.281,3.281h34.646     c1.81,0,3.281-1.472,3.281-3.281v-5.901c0-0.263-0.034-0.531-0.102-0.798l0.025,0.143l-0.082-0.457l0.024,0.14l-0.084-0.459     l0.025,0.14l-0.084-0.46l0.025,0.143l-0.083-0.456l0.024,0.14l-0.084-0.461l0.025,0.146l-0.082-0.46     c0.024,0.142-0.059-0.318-0.059-0.318v-0.001l0.024,0.14l-0.084-0.459l0.025,0.146l-0.083-0.462l0.025,0.143l-0.084-0.463     l0.025,0.144l-0.084-0.461l0.025,0.146l-0.083-0.461l0.024,0.144l-0.083-0.463l0.024,0.142l-0.083-0.46l0.025,0.145l-0.084-0.462     l0.025,0.145l-0.085-0.465l0.026,0.147l-0.084-0.464l0.025,0.148l-0.084-0.467l0.026,0.148l-0.085-0.467l0.026,0.147     l-0.084-0.464l0.025,0.15l-0.086-0.473l0.027,0.155l-0.084-0.468l0.025,0.145l-0.083-0.462l0.025,0.145l-0.085-0.465l0.026,0.15     l-0.085-0.468l0.026,0.15l-0.085-0.469l0.027,0.152l-0.087-0.473l0.028,0.155l-0.085-0.47l0.026,0.148     c0,0-0.085-0.466-0.085-0.467c0,0.001,0.026,0.151,0.026,0.151l-0.085-0.47l0.026,0.151l-0.086-0.471l0.027,0.155l-0.086-0.475     l0.028,0.159l-0.086-0.475l0.027,0.155c0,0-0.086-0.473-0.086-0.473c0,0,0.027,0.157,0.027,0.157l-0.086-0.477l0.027,0.159     L42.4,18.322l0.027,0.153l-0.087-0.474l0.028,0.156l-0.088-0.477l0.029,0.166l-0.086-0.48l0.027,0.157l-0.087-0.477l0.029,0.161     l-0.087-0.477l0.028,0.159l-0.087-0.477l0.028,0.158l-0.087-0.478c0,0.001,0.028,0.159,0.028,0.159l-0.087-0.478l0.029,0.166     l-0.088-0.482l0.029,0.161l-0.087-0.479l0.028,0.161l-0.088-0.479l0.029,0.164l-0.088-0.483l0.029,0.164l-0.087-0.48l0.029,0.163     l-0.088-0.481l0.029,0.164l-0.089-0.484l0.03,0.167l-0.087-0.482l0.028,0.162c0,0-0.088-0.481-0.088-0.481     c0,0.001,0.03,0.166,0.03,0.166l-0.09-0.487l0.031,0.171l-0.088-0.485l0.029,0.167c0,0-0.088-0.486-0.089-0.487     c0.001,0.001,0.03,0.168,0.03,0.168s-0.088-0.484-0.088-0.486c0,0.002,0.029,0.167,0.029,0.167l-0.088-0.484l0.03,0.169     L41.055,11l0.03,0.171l-0.09-0.49l0.031,0.171c-0.136-1.484-1.362-2.603-2.854-2.603H9.826z"
   id="path689" /><path
   style="font-size:12;fill:url(#XMLID_16_);"
   d="M43.537,30.014c-0.012-0.109-0.033-0.215-0.059-0.317     c-0.011-0.109-0.032-0.215-0.059-0.318c-0.011-0.108-0.032-0.214-0.059-0.318c-0.011-0.108-0.032-0.213-0.058-0.316     c-0.011-0.108-0.032-0.214-0.059-0.317c-0.011-0.109-0.032-0.215-0.059-0.318c-0.011-0.108-0.032-0.214-0.058-0.318     c-0.012-0.108-0.033-0.214-0.059-0.317c-0.012-0.108-0.032-0.214-0.059-0.317c-0.011-0.109-0.032-0.215-0.059-0.318     c-0.011-0.109-0.032-0.214-0.059-0.317c-0.011-0.109-0.032-0.215-0.059-0.318c-0.011-0.108-0.031-0.214-0.058-0.317     c-0.012-0.109-0.032-0.215-0.059-0.318c-0.011-0.108-0.032-0.214-0.059-0.317c-0.011-0.109-0.032-0.215-0.059-0.318     c-0.011-0.109-0.032-0.214-0.059-0.317c-0.01-0.109-0.031-0.214-0.058-0.318c-0.011-0.108-0.032-0.214-0.059-0.317     c-0.011-0.109-0.032-0.214-0.059-0.318c-0.01-0.109-0.031-0.214-0.059-0.318c-0.01-0.109-0.031-0.214-0.058-0.318     c-0.011-0.109-0.032-0.215-0.059-0.318c-0.011-0.108-0.032-0.214-0.059-0.317c-0.011-0.109-0.032-0.215-0.059-0.318     c-0.011-0.109-0.031-0.214-0.058-0.317c-0.011-0.109-0.032-0.215-0.059-0.318c-0.011-0.108-0.032-0.214-0.059-0.318     c-0.011-0.108-0.031-0.214-0.059-0.318c-0.011-0.109-0.031-0.214-0.059-0.318c-0.011-0.109-0.031-0.214-0.059-0.317     c-0.01-0.109-0.03-0.214-0.058-0.317c-0.011-0.109-0.031-0.214-0.059-0.318c-0.011-0.109-0.031-0.214-0.059-0.318     c-0.011-0.109-0.031-0.214-0.059-0.318c-0.01-0.109-0.031-0.215-0.058-0.318c-0.011-0.109-0.031-0.215-0.059-0.319     c-0.011-0.108-0.031-0.214-0.059-0.317c-0.01-0.109-0.031-0.215-0.059-0.318c-0.011-0.109-0.031-0.215-0.059-0.318     c-0.01-0.109-0.031-0.215-0.058-0.318c-0.011-0.109-0.031-0.215-0.059-0.318c-0.011-0.109-0.031-0.215-0.059-0.318     c-0.011-0.109-0.031-0.214-0.059-0.317c-0.01-0.109-0.031-0.214-0.059-0.318c-0.01-0.109-0.03-0.214-0.058-0.318     c-0.011-0.109-0.031-0.214-0.059-0.317c-0.01-0.109-0.031-0.215-0.059-0.318c-0.01-0.109-0.031-0.215-0.059-0.318     c-0.01-0.109-0.03-0.215-0.058-0.319c-0.011-0.109-0.031-0.214-0.059-0.317c-0.011-0.109-0.031-0.215-0.059-0.318     c-0.01-0.109-0.031-0.215-0.059-0.318c-0.01-0.109-0.03-0.215-0.059-0.318c-0.01-0.109-0.03-0.215-0.058-0.318     c-0.01-0.109-0.031-0.215-0.059-0.318c-0.01-0.109-0.031-0.215-0.059-0.319c-0.01-0.108-0.031-0.214-0.059-0.317     c-0.01-0.109-0.03-0.215-0.059-0.318c-0.01-0.109-0.03-0.215-0.059-0.318c-0.086-0.952-0.886-1.697-1.86-1.697H9.826     c-0.974,0-1.773,0.745-1.86,1.697c-0.028,0.103-0.048,0.208-0.058,0.318c-0.028,0.103-0.048,0.209-0.059,0.318     c-0.028,0.103-0.048,0.208-0.058,0.317C7.763,12,7.742,12.106,7.732,12.215c-0.028,0.103-0.048,0.208-0.059,0.318     c-0.027,0.103-0.048,0.208-0.058,0.318c-0.028,0.103-0.048,0.208-0.059,0.318c-0.027,0.103-0.048,0.208-0.058,0.318     c-0.027,0.103-0.048,0.208-0.059,0.318c-0.027,0.103-0.048,0.208-0.059,0.317c-0.027,0.104-0.048,0.209-0.058,0.319     c-0.027,0.103-0.048,0.208-0.059,0.318c-0.027,0.103-0.048,0.208-0.058,0.318c-0.027,0.103-0.048,0.208-0.059,0.317     c-0.027,0.104-0.048,0.209-0.058,0.318c-0.027,0.104-0.048,0.209-0.059,0.318c-0.027,0.103-0.048,0.208-0.058,0.317     c-0.027,0.104-0.048,0.209-0.059,0.318c-0.027,0.103-0.048,0.209-0.059,0.318c-0.027,0.103-0.048,0.209-0.058,0.318     C6.771,17.404,6.75,17.51,6.74,17.619c-0.027,0.103-0.048,0.209-0.058,0.318c-0.027,0.103-0.048,0.208-0.059,0.317     c-0.027,0.104-0.048,0.209-0.059,0.319c-0.027,0.103-0.048,0.208-0.058,0.318c-0.027,0.104-0.048,0.208-0.059,0.318     C6.421,19.312,6.4,19.417,6.39,19.526c-0.027,0.104-0.048,0.209-0.059,0.318c-0.027,0.103-0.048,0.208-0.059,0.317     c-0.026,0.103-0.047,0.208-0.058,0.317c-0.027,0.104-0.048,0.209-0.059,0.318c-0.027,0.104-0.047,0.209-0.058,0.318     c-0.027,0.104-0.048,0.209-0.059,0.318c-0.026,0.104-0.048,0.209-0.058,0.318c-0.027,0.103-0.048,0.208-0.059,0.317     c-0.026,0.104-0.047,0.209-0.058,0.318c-0.027,0.103-0.048,0.208-0.059,0.317c-0.026,0.103-0.048,0.209-0.059,0.318     C5.721,23.125,5.7,23.231,5.689,23.34c-0.027,0.104-0.048,0.209-0.059,0.318c-0.026,0.104-0.047,0.209-0.058,0.318     c-0.026,0.104-0.048,0.209-0.059,0.317c-0.026,0.104-0.048,0.209-0.059,0.318c-0.026,0.103-0.047,0.208-0.058,0.317     c-0.026,0.104-0.048,0.209-0.059,0.318c-0.026,0.104-0.047,0.209-0.058,0.317c-0.026,0.104-0.048,0.209-0.059,0.318     c-0.026,0.104-0.047,0.209-0.058,0.317c-0.026,0.104-0.047,0.209-0.059,0.318c-0.026,0.104-0.047,0.208-0.059,0.317     c-0.026,0.104-0.047,0.209-0.059,0.318c-0.026,0.104-0.047,0.209-0.058,0.317c-0.026,0.104-0.047,0.209-0.059,0.317     c-0.026,0.104-0.047,0.21-0.058,0.318c-0.026,0.104-0.047,0.209-0.058,0.318c-0.026,0.104-0.047,0.209-0.059,0.317     c-0.026,0.104-0.047,0.208-0.058,0.316c-0.026,0.104-0.047,0.21-0.059,0.318c-0.026,0.104-0.047,0.209-0.058,0.318     c-0.026,0.103-0.047,0.208-0.059,0.317c-0.044,0.178-0.07,0.362-0.07,0.554v5.901c0,1.262,1.023,2.284,2.284,2.284h34.646     c1.262,0,2.284-1.022,2.284-2.284v-5.901C43.607,30.376,43.581,30.191,43.537,30.014z"
   id="path699" /><path
   style="font-size:12;fill:url(#linearGradient821);"
   d="M11.981,9.247l-6.56,20.442c12.481-1.497,24.628-1.504,36.926-0.826L36.033,9.247H11.981z     "
   id="path710" /><path
   style="font-size:12;fill:url(#XMLID_18_);"
   d="M4.755,28.625c-0.026,0.104-0.047,0.209-0.059,0.317     c-0.026,0.104-0.047,0.208-0.058,0.316c-0.026,0.104-0.047,0.21-0.059,0.319c-0.026,0.104-0.047,0.208-0.058,0.317     c-0.026,0.103-0.047,0.208-0.059,0.317c-0.044,0.178-0.07,0.363-0.07,0.555v2.421c0.424,0.4,0.995,0.646,1.625,0.646h35.966     c0.629,0,1.199-0.246,1.624-0.646v-2.421c0-0.191-0.026-0.377-0.07-0.555c-0.012-0.109-0.033-0.215-0.059-0.317     c-0.011-0.109-0.032-0.215-0.059-0.317c-0.011-0.109-0.032-0.215-0.059-0.319c-0.011-0.108-0.032-0.213-0.058-0.316     c-0.011-0.108-0.032-0.214-0.059-0.317c-0.011-0.109-0.032-0.215-0.059-0.318c-0.011-0.108-0.032-0.214-0.058-0.317     c-0.012-0.109-0.033-0.215-0.059-0.318c-0.012-0.108-0.032-0.214-0.059-0.317c-0.011-0.109-0.032-0.215-0.059-0.318     c-0.011-0.108-0.032-0.214-0.059-0.317c-0.011-0.108-0.032-0.215-0.059-0.317c-0.011-0.109-0.031-0.215-0.058-0.318     c-0.012-0.109-0.032-0.215-0.059-0.318c-0.011-0.108-0.032-0.214-0.059-0.317c-0.011-0.108-0.032-0.215-0.059-0.318     c-0.011-0.109-0.032-0.214-0.059-0.317c-0.01-0.109-0.031-0.214-0.058-0.318c-0.011-0.109-0.032-0.214-0.059-0.318     c-0.011-0.109-0.032-0.214-0.059-0.317c-0.01-0.109-0.031-0.215-0.059-0.318c-0.01-0.109-0.031-0.214-0.058-0.317     c-0.009-0.083-0.023-0.163-0.041-0.242c-0.075-0.007-0.151-0.013-0.229-0.013H6.017c-0.077,0-0.153,0.006-0.229,0.013     c-0.018,0.079-0.033,0.159-0.042,0.242c-0.026,0.103-0.047,0.209-0.058,0.317c-0.027,0.104-0.048,0.209-0.059,0.318     c-0.026,0.103-0.047,0.208-0.058,0.317c-0.026,0.104-0.048,0.209-0.059,0.318c-0.026,0.104-0.048,0.209-0.059,0.318     c-0.026,0.103-0.047,0.208-0.058,0.317c-0.026,0.104-0.048,0.21-0.059,0.318c-0.026,0.104-0.047,0.209-0.058,0.317     c-0.026,0.104-0.048,0.209-0.059,0.318c-0.026,0.104-0.047,0.209-0.058,0.318c-0.026,0.103-0.047,0.209-0.059,0.317     c-0.026,0.104-0.047,0.209-0.059,0.317c-0.026,0.104-0.047,0.209-0.059,0.318c-0.026,0.104-0.047,0.209-0.058,0.317     c-0.026,0.104-0.047,0.209-0.059,0.318c-0.026,0.104-0.047,0.209-0.058,0.317C4.787,28.41,4.766,28.516,4.755,28.625z"
   id="path720" /><path
   style="font-size:12;fill:url(#XMLID_19_);"
   d="M43.479,29.696c-0.011-0.109-0.032-0.215-0.059-0.318     c-0.011-0.108-0.032-0.214-0.059-0.318c-0.011-0.108-0.032-0.213-0.058-0.316c-0.011-0.108-0.032-0.214-0.059-0.317     c-0.011-0.109-0.032-0.215-0.059-0.318c-0.011-0.108-0.032-0.214-0.058-0.318c-0.012-0.108-0.033-0.214-0.059-0.317     c-0.012-0.108-0.032-0.214-0.059-0.317c-0.011-0.109-0.032-0.215-0.059-0.318c-0.011-0.109-0.032-0.214-0.059-0.317     c-0.011-0.109-0.032-0.215-0.059-0.318c-0.011-0.108-0.031-0.214-0.058-0.317c-0.012-0.109-0.032-0.215-0.059-0.318     c-0.011-0.108-0.032-0.214-0.059-0.317c-0.011-0.109-0.032-0.215-0.059-0.318c-0.011-0.109-0.032-0.214-0.059-0.317     c-0.01-0.109-0.031-0.214-0.058-0.318c-0.011-0.108-0.032-0.214-0.059-0.317c-0.011-0.109-0.032-0.214-0.059-0.318     c-0.008-0.088-0.025-0.174-0.045-0.258c-0.303-0.148-0.642-0.233-1.001-0.233H6.677c-0.359,0-0.699,0.085-1.001,0.233     c-0.02,0.084-0.037,0.17-0.045,0.258c-0.026,0.104-0.047,0.209-0.058,0.318c-0.026,0.104-0.048,0.209-0.059,0.317     c-0.026,0.104-0.048,0.209-0.059,0.318c-0.026,0.103-0.047,0.208-0.058,0.317c-0.026,0.104-0.048,0.209-0.059,0.318     c-0.026,0.104-0.047,0.209-0.058,0.317c-0.026,0.104-0.048,0.209-0.059,0.318c-0.026,0.104-0.047,0.209-0.058,0.317     c-0.026,0.104-0.047,0.209-0.059,0.318c-0.026,0.104-0.047,0.208-0.059,0.317c-0.026,0.104-0.047,0.209-0.059,0.318     c-0.026,0.104-0.047,0.209-0.058,0.317c-0.026,0.104-0.047,0.209-0.059,0.317c-0.026,0.104-0.047,0.21-0.058,0.318     c-0.026,0.104-0.047,0.209-0.058,0.318c-0.026,0.104-0.047,0.209-0.059,0.317c-0.026,0.104-0.047,0.208-0.058,0.316     c-0.026,0.104-0.047,0.21-0.059,0.318c-0.026,0.104-0.047,0.209-0.058,0.318c-0.026,0.103-0.047,0.208-0.059,0.317     c-0.044,0.177-0.07,0.361-0.07,0.553v0.785c0,1.262,1.023,2.284,2.284,2.284h34.646c1.262,0,2.284-1.022,2.284-2.284v-0.784     c0-0.191-0.026-0.376-0.07-0.554C43.525,29.904,43.504,29.799,43.479,29.696z"
   id="path727" /><path
   style="font-size:12;fill:url(#XMLID_20_);"
   d="M4.393,36.469c0,1.262,1.023,2.284,2.284,2.284h34.646c1.262,0,2.284-1.022,2.284-2.284     v-5.901c0-1.262-1.022-2.284-2.284-2.284H6.677c-1.261,0-2.284,1.022-2.284,2.284V36.469z"
   id="path734" /><path
   style="font-size:12;fill:url(#XMLID_21_);"
   d="M6.677,29.479c-0.6,0-1.088,0.488-1.088,1.088v5.901c0,0.6,0.488,1.088,1.088,1.088     h34.646c0.6,0,1.088-0.488,1.088-1.088v-5.901c0-0.6-0.488-1.088-1.088-1.088H6.677z"
   id="path741" /><path
   style="font-size:12;fill:url(#XMLID_22_);"
   d="M39.107,34.945c-0.761,0-1.355,0.49-1.355,1.116s0.595,1.116,1.355,1.116h0.805     c0.76,0,1.355-0.49,1.355-1.116s-0.596-1.116-1.355-1.116H39.107z"
   id="path748" /><path
   style="font-size:12;fill:url(#XMLID_23_);"
   d="M39.107,35.244c-0.583,0-1.057,0.367-1.057,0.817s0.474,0.816,1.057,0.816h0.805     c0.583,0,1.056-0.366,1.056-0.816s-0.473-0.817-1.056-0.817H39.107z"
   id="path757" /><path
   style="font-size:12;fill:url(#XMLID_24_);"
   d="M40.868,36.062c0,0.396-0.428,0.717-0.956,0.717h-0.805c-0.528,0-0.957-0.32-0.957-0.717     l0,0c0-0.396,0.429-0.717,0.957-0.717h0.805C40.44,35.345,40.868,35.665,40.868,36.062L40.868,36.062z"
   id="path768" /><path
   style="font-size:12;fill:url(#XMLID_25_);"
   d="M39.107,35.544c-0.411,0-0.758,0.248-0.758,0.542c0,0.295,0.347,0.543,0.758,0.543h0.805     c0.41,0,0.757-0.248,0.757-0.543c0-0.294-0.347-0.542-0.757-0.542H39.107z"
   id="path777" /><path
   style="font-size:12;fill:url(#XMLID_26_);"
   d="M39.075,35.426c-0.338,0-0.601,0.208-0.601,0.387s0.263,0.386,0.601,0.386h0.869     c0.344,0,0.6-0.204,0.6-0.386c0-0.183-0.256-0.387-0.6-0.387H39.075z"
   id="path791" /><rect
   x="8.184"
   y="33.702"
   style="font-size:12;fill:url(#XMLID_27_);"
   width="12.759"
   height="3.323"
   id="rect798" /><polygon
   style="font-size:12;fill:url(#XMLID_28_);"
   points="8.184,33.702 8.184,34.102 20.544,34.102 20.544,37.025 20.943,37.025      20.943,33.702 "
   id="polygon805" /><rect
   x="17.886"
   y="33.702"
   style="font-size:12;fill:#949494;"
   width="0.797"
   height="3.323"
   id="rect806" /><rect
   x="13.721"
   y="33.702"
   style="font-size:12;fill:#949494;"
   width="0.798"
   height="3.323"
   id="rect807" /><rect
   x="15.804"
   y="33.702"
   style="font-size:12;fill:#949494;"
   width="0.797"
   height="3.323"
   id="rect808" /><rect
   x="11.639"
   y="33.702"
   style="font-size:12;fill:#949494;"
   width="0.797"
   height="3.323"
   id="rect809" /><rect
   x="17.687"
   y="33.702"
   style="font-size:12;fill:#f0f0f0;"
   width="0.798"
   height="3.323"
   id="rect810" /><rect
   x="13.522"
   y="33.702"
   style="font-size:12;fill:#f0f0f0;"
   width="0.797"
   height="3.323"
   id="rect811" /><rect
   x="15.604"
   y="33.702"
   style="font-size:12;fill:#f0f0f0;"
   width="0.797"
   height="3.323"
   id="rect812" /><rect
   x="11.439"
   y="33.702"
   style="font-size:12;fill:#f0f0f0;"
   width="0.798"
   height="3.323"
   id="rect813" /><polyline
   id="_x3C_Slice_x3E_"
   style="font-size:12;fill:none;"
   points="0,48 0,0 48,0 48,48 " /></svg>
